<mxfile host="65bd71144e">
    <diagram id="C5RBs43oDa-KdzZeNtuy" name="Page-1">
        <mxGraphModel dx="1256" dy="1198" grid="0" gridSize="10" guides="1" tooltips="1" connect="1" arrows="1" fold="1" page="0" pageScale="1" pageWidth="827" pageHeight="1169" background="none" math="0" shadow="0">
            <root>
                <mxCell id="WIyWlLk6GJQsqaUBKTNV-0"/>
                <mxCell id="WIyWlLk6GJQsqaUBKTNV-1" parent="WIyWlLk6GJQsqaUBKTNV-0"/>
                <mxCell id="RmoLTkE8BjR0isru9Wzh-0" value="post" style="shape=table;startSize=30;container=1;collapsible=1;childLayout=tableLayout;fixedRows=1;rowLines=0;fontStyle=1;align=center;resizeLast=1;html=1;fillColor=#fff2cc;strokeColor=#d6b656;" parent="WIyWlLk6GJQsqaUBKTNV-1" vertex="1">
                    <mxGeometry x="130" y="450" width="180" height="240" as="geometry"/>
                </mxCell>
                <mxCell id="RmoLTkE8BjR0isru9Wzh-1" value="" style="shape=tableRow;horizontal=0;startSize=0;swimlaneHead=0;swimlaneBody=0;fillColor=none;collapsible=0;dropTarget=0;points=[[0,0.5],[1,0.5]];portConstraint=eastwest;top=0;left=0;right=0;bottom=1;" parent="RmoLTkE8BjR0isru9Wzh-0" vertex="1">
                    <mxGeometry y="30" width="180" height="30" as="geometry"/>
                </mxCell>
                <mxCell id="RmoLTkE8BjR0isru9Wzh-2" value="PK" style="shape=partialRectangle;connectable=0;fillColor=none;top=0;left=0;bottom=0;right=0;fontStyle=1;overflow=hidden;whiteSpace=wrap;html=1;" parent="RmoLTkE8BjR0isru9Wzh-1" vertex="1">
                    <mxGeometry width="30" height="30" as="geometry">
                        <mxRectangle width="30" height="30" as="alternateBounds"/>
                    </mxGeometry>
                </mxCell>
                <mxCell id="RmoLTkE8BjR0isru9Wzh-3" value="post_id" style="shape=partialRectangle;connectable=0;fillColor=none;top=0;left=0;bottom=0;right=0;align=left;spacingLeft=6;fontStyle=5;overflow=hidden;whiteSpace=wrap;html=1;" parent="RmoLTkE8BjR0isru9Wzh-1" vertex="1">
                    <mxGeometry x="30" width="150" height="30" as="geometry">
                        <mxRectangle width="150" height="30" as="alternateBounds"/>
                    </mxGeometry>
                </mxCell>
                <mxCell id="RmoLTkE8BjR0isru9Wzh-4" value="" style="shape=tableRow;horizontal=0;startSize=0;swimlaneHead=0;swimlaneBody=0;fillColor=none;collapsible=0;dropTarget=0;points=[[0,0.5],[1,0.5]];portConstraint=eastwest;top=0;left=0;right=0;bottom=0;" parent="RmoLTkE8BjR0isru9Wzh-0" vertex="1">
                    <mxGeometry y="60" width="180" height="30" as="geometry"/>
                </mxCell>
                <mxCell id="RmoLTkE8BjR0isru9Wzh-5" value="FK" style="shape=partialRectangle;connectable=0;fillColor=none;top=0;left=0;bottom=0;right=0;editable=1;overflow=hidden;whiteSpace=wrap;html=1;" parent="RmoLTkE8BjR0isru9Wzh-4" vertex="1">
                    <mxGeometry width="30" height="30" as="geometry">
                        <mxRectangle width="30" height="30" as="alternateBounds"/>
                    </mxGeometry>
                </mxCell>
                <mxCell id="RmoLTkE8BjR0isru9Wzh-6" value="member_id" style="shape=partialRectangle;connectable=0;fillColor=none;top=0;left=0;bottom=0;right=0;align=left;spacingLeft=6;overflow=hidden;whiteSpace=wrap;html=1;" parent="RmoLTkE8BjR0isru9Wzh-4" vertex="1">
                    <mxGeometry x="30" width="150" height="30" as="geometry">
                        <mxRectangle width="150" height="30" as="alternateBounds"/>
                    </mxGeometry>
                </mxCell>
                <mxCell id="RmoLTkE8BjR0isru9Wzh-7" value="" style="shape=tableRow;horizontal=0;startSize=0;swimlaneHead=0;swimlaneBody=0;fillColor=none;collapsible=0;dropTarget=0;points=[[0,0.5],[1,0.5]];portConstraint=eastwest;top=0;left=0;right=0;bottom=0;" parent="RmoLTkE8BjR0isru9Wzh-0" vertex="1">
                    <mxGeometry y="90" width="180" height="30" as="geometry"/>
                </mxCell>
                <mxCell id="RmoLTkE8BjR0isru9Wzh-8" value="" style="shape=partialRectangle;connectable=0;fillColor=none;top=0;left=0;bottom=0;right=0;editable=1;overflow=hidden;whiteSpace=wrap;html=1;" parent="RmoLTkE8BjR0isru9Wzh-7" vertex="1">
                    <mxGeometry width="30" height="30" as="geometry">
                        <mxRectangle width="30" height="30" as="alternateBounds"/>
                    </mxGeometry>
                </mxCell>
                <mxCell id="RmoLTkE8BjR0isru9Wzh-9" value="title" style="shape=partialRectangle;connectable=0;fillColor=none;top=0;left=0;bottom=0;right=0;align=left;spacingLeft=6;overflow=hidden;whiteSpace=wrap;html=1;" parent="RmoLTkE8BjR0isru9Wzh-7" vertex="1">
                    <mxGeometry x="30" width="150" height="30" as="geometry">
                        <mxRectangle width="150" height="30" as="alternateBounds"/>
                    </mxGeometry>
                </mxCell>
                <mxCell id="RmoLTkE8BjR0isru9Wzh-10" value="" style="shape=tableRow;horizontal=0;startSize=0;swimlaneHead=0;swimlaneBody=0;fillColor=none;collapsible=0;dropTarget=0;points=[[0,0.5],[1,0.5]];portConstraint=eastwest;top=0;left=0;right=0;bottom=0;" parent="RmoLTkE8BjR0isru9Wzh-0" vertex="1">
                    <mxGeometry y="120" width="180" height="30" as="geometry"/>
                </mxCell>
                <mxCell id="RmoLTkE8BjR0isru9Wzh-11" value="" style="shape=partialRectangle;connectable=0;fillColor=none;top=0;left=0;bottom=0;right=0;editable=1;overflow=hidden;whiteSpace=wrap;html=1;" parent="RmoLTkE8BjR0isru9Wzh-10" vertex="1">
                    <mxGeometry width="30" height="30" as="geometry">
                        <mxRectangle width="30" height="30" as="alternateBounds"/>
                    </mxGeometry>
                </mxCell>
                <mxCell id="RmoLTkE8BjR0isru9Wzh-12" value="content" style="shape=partialRectangle;connectable=0;fillColor=none;top=0;left=0;bottom=0;right=0;align=left;spacingLeft=6;overflow=hidden;whiteSpace=wrap;html=1;" parent="RmoLTkE8BjR0isru9Wzh-10" vertex="1">
                    <mxGeometry x="30" width="150" height="30" as="geometry">
                        <mxRectangle width="150" height="30" as="alternateBounds"/>
                    </mxGeometry>
                </mxCell>
                <mxCell id="RmoLTkE8BjR0isru9Wzh-13" value="" style="shape=tableRow;horizontal=0;startSize=0;swimlaneHead=0;swimlaneBody=0;fillColor=none;collapsible=0;dropTarget=0;points=[[0,0.5],[1,0.5]];portConstraint=eastwest;top=0;left=0;right=0;bottom=0;" parent="RmoLTkE8BjR0isru9Wzh-0" vertex="1">
                    <mxGeometry y="150" width="180" height="30" as="geometry"/>
                </mxCell>
                <mxCell id="RmoLTkE8BjR0isru9Wzh-14" value="" style="shape=partialRectangle;connectable=0;fillColor=none;top=0;left=0;bottom=0;right=0;editable=1;overflow=hidden;whiteSpace=wrap;html=1;" parent="RmoLTkE8BjR0isru9Wzh-13" vertex="1">
                    <mxGeometry width="30" height="30" as="geometry">
                        <mxRectangle width="30" height="30" as="alternateBounds"/>
                    </mxGeometry>
                </mxCell>
                <mxCell id="RmoLTkE8BjR0isru9Wzh-15" value="view_cnt" style="shape=partialRectangle;connectable=0;fillColor=none;top=0;left=0;bottom=0;right=0;align=left;spacingLeft=6;overflow=hidden;whiteSpace=wrap;html=1;" parent="RmoLTkE8BjR0isru9Wzh-13" vertex="1">
                    <mxGeometry x="30" width="150" height="30" as="geometry">
                        <mxRectangle width="150" height="30" as="alternateBounds"/>
                    </mxGeometry>
                </mxCell>
                <mxCell id="RmoLTkE8BjR0isru9Wzh-16" value="" style="shape=tableRow;horizontal=0;startSize=0;swimlaneHead=0;swimlaneBody=0;fillColor=none;collapsible=0;dropTarget=0;points=[[0,0.5],[1,0.5]];portConstraint=eastwest;top=0;left=0;right=0;bottom=0;" parent="RmoLTkE8BjR0isru9Wzh-0" vertex="1">
                    <mxGeometry y="180" width="180" height="30" as="geometry"/>
                </mxCell>
                <mxCell id="RmoLTkE8BjR0isru9Wzh-17" value="" style="shape=partialRectangle;connectable=0;fillColor=none;top=0;left=0;bottom=0;right=0;editable=1;overflow=hidden;whiteSpace=wrap;html=1;" parent="RmoLTkE8BjR0isru9Wzh-16" vertex="1">
                    <mxGeometry width="30" height="30" as="geometry">
                        <mxRectangle width="30" height="30" as="alternateBounds"/>
                    </mxGeometry>
                </mxCell>
                <mxCell id="RmoLTkE8BjR0isru9Wzh-18" value="created_at" style="shape=partialRectangle;connectable=0;fillColor=none;top=0;left=0;bottom=0;right=0;align=left;spacingLeft=6;overflow=hidden;whiteSpace=wrap;html=1;" parent="RmoLTkE8BjR0isru9Wzh-16" vertex="1">
                    <mxGeometry x="30" width="150" height="30" as="geometry">
                        <mxRectangle width="150" height="30" as="alternateBounds"/>
                    </mxGeometry>
                </mxCell>
                <mxCell id="tlUA8R-jlafDXr4WyVtX-19" value="" style="shape=tableRow;horizontal=0;startSize=0;swimlaneHead=0;swimlaneBody=0;fillColor=none;collapsible=0;dropTarget=0;points=[[0,0.5],[1,0.5]];portConstraint=eastwest;top=0;left=0;right=0;bottom=0;" parent="RmoLTkE8BjR0isru9Wzh-0" vertex="1">
                    <mxGeometry y="210" width="180" height="30" as="geometry"/>
                </mxCell>
                <mxCell id="tlUA8R-jlafDXr4WyVtX-20" value="" style="shape=partialRectangle;connectable=0;fillColor=none;top=0;left=0;bottom=0;right=0;editable=1;overflow=hidden;whiteSpace=wrap;html=1;" parent="tlUA8R-jlafDXr4WyVtX-19" vertex="1">
                    <mxGeometry width="30" height="30" as="geometry">
                        <mxRectangle width="30" height="30" as="alternateBounds"/>
                    </mxGeometry>
                </mxCell>
                <mxCell id="tlUA8R-jlafDXr4WyVtX-21" value="updated_at" style="shape=partialRectangle;connectable=0;fillColor=none;top=0;left=0;bottom=0;right=0;align=left;spacingLeft=6;overflow=hidden;whiteSpace=wrap;html=1;" parent="tlUA8R-jlafDXr4WyVtX-19" vertex="1">
                    <mxGeometry x="30" width="150" height="30" as="geometry">
                        <mxRectangle width="150" height="30" as="alternateBounds"/>
                    </mxGeometry>
                </mxCell>
                <mxCell id="RmoLTkE8BjR0isru9Wzh-32" value="post_like" style="shape=table;startSize=30;container=1;collapsible=1;childLayout=tableLayout;fixedRows=1;rowLines=0;fontStyle=1;align=center;resizeLast=1;html=1;fillColor=#fff2cc;strokeColor=#d6b656;" parent="WIyWlLk6GJQsqaUBKTNV-1" vertex="1">
                    <mxGeometry x="130" y="310" width="180" height="120" as="geometry"/>
                </mxCell>
                <mxCell id="RmoLTkE8BjR0isru9Wzh-33" value="" style="shape=tableRow;horizontal=0;startSize=0;swimlaneHead=0;swimlaneBody=0;fillColor=none;collapsible=0;dropTarget=0;points=[[0,0.5],[1,0.5]];portConstraint=eastwest;top=0;left=0;right=0;bottom=1;" parent="RmoLTkE8BjR0isru9Wzh-32" vertex="1">
                    <mxGeometry y="30" width="180" height="30" as="geometry"/>
                </mxCell>
                <mxCell id="RmoLTkE8BjR0isru9Wzh-34" value="PK" style="shape=partialRectangle;connectable=0;fillColor=none;top=0;left=0;bottom=0;right=0;fontStyle=1;overflow=hidden;whiteSpace=wrap;html=1;" parent="RmoLTkE8BjR0isru9Wzh-33" vertex="1">
                    <mxGeometry width="30" height="30" as="geometry">
                        <mxRectangle width="30" height="30" as="alternateBounds"/>
                    </mxGeometry>
                </mxCell>
                <mxCell id="RmoLTkE8BjR0isru9Wzh-35" value="likes_id" style="shape=partialRectangle;connectable=0;fillColor=none;top=0;left=0;bottom=0;right=0;align=left;spacingLeft=6;fontStyle=5;overflow=hidden;whiteSpace=wrap;html=1;" parent="RmoLTkE8BjR0isru9Wzh-33" vertex="1">
                    <mxGeometry x="30" width="150" height="30" as="geometry">
                        <mxRectangle width="150" height="30" as="alternateBounds"/>
                    </mxGeometry>
                </mxCell>
                <mxCell id="RmoLTkE8BjR0isru9Wzh-36" value="" style="shape=tableRow;horizontal=0;startSize=0;swimlaneHead=0;swimlaneBody=0;fillColor=none;collapsible=0;dropTarget=0;points=[[0,0.5],[1,0.5]];portConstraint=eastwest;top=0;left=0;right=0;bottom=0;" parent="RmoLTkE8BjR0isru9Wzh-32" vertex="1">
                    <mxGeometry y="60" width="180" height="30" as="geometry"/>
                </mxCell>
                <mxCell id="RmoLTkE8BjR0isru9Wzh-37" value="FK" style="shape=partialRectangle;connectable=0;fillColor=none;top=0;left=0;bottom=0;right=0;editable=1;overflow=hidden;whiteSpace=wrap;html=1;" parent="RmoLTkE8BjR0isru9Wzh-36" vertex="1">
                    <mxGeometry width="30" height="30" as="geometry">
                        <mxRectangle width="30" height="30" as="alternateBounds"/>
                    </mxGeometry>
                </mxCell>
                <mxCell id="RmoLTkE8BjR0isru9Wzh-38" value="post_id" style="shape=partialRectangle;connectable=0;fillColor=none;top=0;left=0;bottom=0;right=0;align=left;spacingLeft=6;overflow=hidden;whiteSpace=wrap;html=1;" parent="RmoLTkE8BjR0isru9Wzh-36" vertex="1">
                    <mxGeometry x="30" width="150" height="30" as="geometry">
                        <mxRectangle width="150" height="30" as="alternateBounds"/>
                    </mxGeometry>
                </mxCell>
                <mxCell id="RmoLTkE8BjR0isru9Wzh-39" value="" style="shape=tableRow;horizontal=0;startSize=0;swimlaneHead=0;swimlaneBody=0;fillColor=none;collapsible=0;dropTarget=0;points=[[0,0.5],[1,0.5]];portConstraint=eastwest;top=0;left=0;right=0;bottom=0;" parent="RmoLTkE8BjR0isru9Wzh-32" vertex="1">
                    <mxGeometry y="90" width="180" height="30" as="geometry"/>
                </mxCell>
                <mxCell id="RmoLTkE8BjR0isru9Wzh-40" value="FK" style="shape=partialRectangle;connectable=0;fillColor=none;top=0;left=0;bottom=0;right=0;editable=1;overflow=hidden;whiteSpace=wrap;html=1;" parent="RmoLTkE8BjR0isru9Wzh-39" vertex="1">
                    <mxGeometry width="30" height="30" as="geometry">
                        <mxRectangle width="30" height="30" as="alternateBounds"/>
                    </mxGeometry>
                </mxCell>
                <mxCell id="RmoLTkE8BjR0isru9Wzh-41" value="member_id" style="shape=partialRectangle;connectable=0;fillColor=none;top=0;left=0;bottom=0;right=0;align=left;spacingLeft=6;overflow=hidden;whiteSpace=wrap;html=1;" parent="RmoLTkE8BjR0isru9Wzh-39" vertex="1">
                    <mxGeometry x="30" width="150" height="30" as="geometry">
                        <mxRectangle width="150" height="30" as="alternateBounds"/>
                    </mxGeometry>
                </mxCell>
                <mxCell id="RmoLTkE8BjR0isru9Wzh-47" value="post_comment" style="shape=table;startSize=30;container=1;collapsible=1;childLayout=tableLayout;fixedRows=1;rowLines=0;fontStyle=1;align=center;resizeLast=1;html=1;fillColor=#fff2cc;strokeColor=#d6b656;" parent="WIyWlLk6GJQsqaUBKTNV-1" vertex="1">
                    <mxGeometry x="430" y="450" width="180" height="240" as="geometry"/>
                </mxCell>
                <mxCell id="RmoLTkE8BjR0isru9Wzh-48" value="" style="shape=tableRow;horizontal=0;startSize=0;swimlaneHead=0;swimlaneBody=0;fillColor=none;collapsible=0;dropTarget=0;points=[[0,0.5],[1,0.5]];portConstraint=eastwest;top=0;left=0;right=0;bottom=1;" parent="RmoLTkE8BjR0isru9Wzh-47" vertex="1">
                    <mxGeometry y="30" width="180" height="30" as="geometry"/>
                </mxCell>
                <mxCell id="RmoLTkE8BjR0isru9Wzh-49" value="PK" style="shape=partialRectangle;connectable=0;fillColor=none;top=0;left=0;bottom=0;right=0;fontStyle=1;overflow=hidden;whiteSpace=wrap;html=1;" parent="RmoLTkE8BjR0isru9Wzh-48" vertex="1">
                    <mxGeometry width="30" height="30" as="geometry">
                        <mxRectangle width="30" height="30" as="alternateBounds"/>
                    </mxGeometry>
                </mxCell>
                <mxCell id="RmoLTkE8BjR0isru9Wzh-50" value="comment_id" style="shape=partialRectangle;connectable=0;fillColor=none;top=0;left=0;bottom=0;right=0;align=left;spacingLeft=6;fontStyle=5;overflow=hidden;whiteSpace=wrap;html=1;" parent="RmoLTkE8BjR0isru9Wzh-48" vertex="1">
                    <mxGeometry x="30" width="150" height="30" as="geometry">
                        <mxRectangle width="150" height="30" as="alternateBounds"/>
                    </mxGeometry>
                </mxCell>
                <mxCell id="RmoLTkE8BjR0isru9Wzh-51" value="" style="shape=tableRow;horizontal=0;startSize=0;swimlaneHead=0;swimlaneBody=0;fillColor=none;collapsible=0;dropTarget=0;points=[[0,0.5],[1,0.5]];portConstraint=eastwest;top=0;left=0;right=0;bottom=0;" parent="RmoLTkE8BjR0isru9Wzh-47" vertex="1">
                    <mxGeometry y="60" width="180" height="30" as="geometry"/>
                </mxCell>
                <mxCell id="RmoLTkE8BjR0isru9Wzh-52" value="FK" style="shape=partialRectangle;connectable=0;fillColor=none;top=0;left=0;bottom=0;right=0;editable=1;overflow=hidden;whiteSpace=wrap;html=1;" parent="RmoLTkE8BjR0isru9Wzh-51" vertex="1">
                    <mxGeometry width="30" height="30" as="geometry">
                        <mxRectangle width="30" height="30" as="alternateBounds"/>
                    </mxGeometry>
                </mxCell>
                <mxCell id="RmoLTkE8BjR0isru9Wzh-53" value="parent_comment_id" style="shape=partialRectangle;connectable=0;fillColor=none;top=0;left=0;bottom=0;right=0;align=left;spacingLeft=6;overflow=hidden;whiteSpace=wrap;html=1;" parent="RmoLTkE8BjR0isru9Wzh-51" vertex="1">
                    <mxGeometry x="30" width="150" height="30" as="geometry">
                        <mxRectangle width="150" height="30" as="alternateBounds"/>
                    </mxGeometry>
                </mxCell>
                <mxCell id="RmoLTkE8BjR0isru9Wzh-54" value="" style="shape=tableRow;horizontal=0;startSize=0;swimlaneHead=0;swimlaneBody=0;fillColor=none;collapsible=0;dropTarget=0;points=[[0,0.5],[1,0.5]];portConstraint=eastwest;top=0;left=0;right=0;bottom=0;" parent="RmoLTkE8BjR0isru9Wzh-47" vertex="1">
                    <mxGeometry y="90" width="180" height="30" as="geometry"/>
                </mxCell>
                <mxCell id="RmoLTkE8BjR0isru9Wzh-55" value="FK" style="shape=partialRectangle;connectable=0;fillColor=none;top=0;left=0;bottom=0;right=0;editable=1;overflow=hidden;whiteSpace=wrap;html=1;" parent="RmoLTkE8BjR0isru9Wzh-54" vertex="1">
                    <mxGeometry width="30" height="30" as="geometry">
                        <mxRectangle width="30" height="30" as="alternateBounds"/>
                    </mxGeometry>
                </mxCell>
                <mxCell id="RmoLTkE8BjR0isru9Wzh-56" value="post_id" style="shape=partialRectangle;connectable=0;fillColor=none;top=0;left=0;bottom=0;right=0;align=left;spacingLeft=6;overflow=hidden;whiteSpace=wrap;html=1;" parent="RmoLTkE8BjR0isru9Wzh-54" vertex="1">
                    <mxGeometry x="30" width="150" height="30" as="geometry">
                        <mxRectangle width="150" height="30" as="alternateBounds"/>
                    </mxGeometry>
                </mxCell>
                <mxCell id="RmoLTkE8BjR0isru9Wzh-57" value="" style="shape=tableRow;horizontal=0;startSize=0;swimlaneHead=0;swimlaneBody=0;fillColor=none;collapsible=0;dropTarget=0;points=[[0,0.5],[1,0.5]];portConstraint=eastwest;top=0;left=0;right=0;bottom=0;" parent="RmoLTkE8BjR0isru9Wzh-47" vertex="1">
                    <mxGeometry y="120" width="180" height="30" as="geometry"/>
                </mxCell>
                <mxCell id="RmoLTkE8BjR0isru9Wzh-58" value="FK" style="shape=partialRectangle;connectable=0;fillColor=none;top=0;left=0;bottom=0;right=0;editable=1;overflow=hidden;whiteSpace=wrap;html=1;" parent="RmoLTkE8BjR0isru9Wzh-57" vertex="1">
                    <mxGeometry width="30" height="30" as="geometry">
                        <mxRectangle width="30" height="30" as="alternateBounds"/>
                    </mxGeometry>
                </mxCell>
                <mxCell id="RmoLTkE8BjR0isru9Wzh-59" value="member_id" style="shape=partialRectangle;connectable=0;fillColor=none;top=0;left=0;bottom=0;right=0;align=left;spacingLeft=6;overflow=hidden;whiteSpace=wrap;html=1;" parent="RmoLTkE8BjR0isru9Wzh-57" vertex="1">
                    <mxGeometry x="30" width="150" height="30" as="geometry">
                        <mxRectangle width="150" height="30" as="alternateBounds"/>
                    </mxGeometry>
                </mxCell>
                <mxCell id="RmoLTkE8BjR0isru9Wzh-60" value="" style="shape=tableRow;horizontal=0;startSize=0;swimlaneHead=0;swimlaneBody=0;fillColor=none;collapsible=0;dropTarget=0;points=[[0,0.5],[1,0.5]];portConstraint=eastwest;top=0;left=0;right=0;bottom=0;" parent="RmoLTkE8BjR0isru9Wzh-47" vertex="1">
                    <mxGeometry y="150" width="180" height="30" as="geometry"/>
                </mxCell>
                <mxCell id="RmoLTkE8BjR0isru9Wzh-61" value="" style="shape=partialRectangle;connectable=0;fillColor=none;top=0;left=0;bottom=0;right=0;editable=1;overflow=hidden;whiteSpace=wrap;html=1;" parent="RmoLTkE8BjR0isru9Wzh-60" vertex="1">
                    <mxGeometry width="30" height="30" as="geometry">
                        <mxRectangle width="30" height="30" as="alternateBounds"/>
                    </mxGeometry>
                </mxCell>
                <mxCell id="RmoLTkE8BjR0isru9Wzh-62" value="content" style="shape=partialRectangle;connectable=0;fillColor=none;top=0;left=0;bottom=0;right=0;align=left;spacingLeft=6;overflow=hidden;whiteSpace=wrap;html=1;" parent="RmoLTkE8BjR0isru9Wzh-60" vertex="1">
                    <mxGeometry x="30" width="150" height="30" as="geometry">
                        <mxRectangle width="150" height="30" as="alternateBounds"/>
                    </mxGeometry>
                </mxCell>
                <mxCell id="RmoLTkE8BjR0isru9Wzh-63" value="" style="shape=tableRow;horizontal=0;startSize=0;swimlaneHead=0;swimlaneBody=0;fillColor=none;collapsible=0;dropTarget=0;points=[[0,0.5],[1,0.5]];portConstraint=eastwest;top=0;left=0;right=0;bottom=0;" parent="RmoLTkE8BjR0isru9Wzh-47" vertex="1">
                    <mxGeometry y="180" width="180" height="30" as="geometry"/>
                </mxCell>
                <mxCell id="RmoLTkE8BjR0isru9Wzh-64" value="" style="shape=partialRectangle;connectable=0;fillColor=none;top=0;left=0;bottom=0;right=0;editable=1;overflow=hidden;whiteSpace=wrap;html=1;" parent="RmoLTkE8BjR0isru9Wzh-63" vertex="1">
                    <mxGeometry width="30" height="30" as="geometry">
                        <mxRectangle width="30" height="30" as="alternateBounds"/>
                    </mxGeometry>
                </mxCell>
                <mxCell id="RmoLTkE8BjR0isru9Wzh-65" value="created_at" style="shape=partialRectangle;connectable=0;fillColor=none;top=0;left=0;bottom=0;right=0;align=left;spacingLeft=6;overflow=hidden;whiteSpace=wrap;html=1;" parent="RmoLTkE8BjR0isru9Wzh-63" vertex="1">
                    <mxGeometry x="30" width="150" height="30" as="geometry">
                        <mxRectangle width="150" height="30" as="alternateBounds"/>
                    </mxGeometry>
                </mxCell>
                <mxCell id="RmoLTkE8BjR0isru9Wzh-66" value="" style="shape=tableRow;horizontal=0;startSize=0;swimlaneHead=0;swimlaneBody=0;fillColor=none;collapsible=0;dropTarget=0;points=[[0,0.5],[1,0.5]];portConstraint=eastwest;top=0;left=0;right=0;bottom=0;" parent="RmoLTkE8BjR0isru9Wzh-47" vertex="1">
                    <mxGeometry y="210" width="180" height="30" as="geometry"/>
                </mxCell>
                <mxCell id="RmoLTkE8BjR0isru9Wzh-67" value="" style="shape=partialRectangle;connectable=0;fillColor=none;top=0;left=0;bottom=0;right=0;editable=1;overflow=hidden;whiteSpace=wrap;html=1;" parent="RmoLTkE8BjR0isru9Wzh-66" vertex="1">
                    <mxGeometry width="30" height="30" as="geometry">
                        <mxRectangle width="30" height="30" as="alternateBounds"/>
                    </mxGeometry>
                </mxCell>
                <mxCell id="RmoLTkE8BjR0isru9Wzh-68" value="updeated_at" style="shape=partialRectangle;connectable=0;fillColor=none;top=0;left=0;bottom=0;right=0;align=left;spacingLeft=6;overflow=hidden;whiteSpace=wrap;html=1;" parent="RmoLTkE8BjR0isru9Wzh-66" vertex="1">
                    <mxGeometry x="30" width="150" height="30" as="geometry">
                        <mxRectangle width="150" height="30" as="alternateBounds"/>
                    </mxGeometry>
                </mxCell>
                <mxCell id="RmoLTkE8BjR0isru9Wzh-69" value="" style="edgeStyle=entityRelationEdgeStyle;fontSize=12;html=1;endArrow=ERoneToMany;startArrow=ERzeroToOne;rounded=0;" parent="RmoLTkE8BjR0isru9Wzh-47" source="RmoLTkE8BjR0isru9Wzh-51" target="RmoLTkE8BjR0isru9Wzh-48" edge="1">
                    <mxGeometry width="100" height="100" relative="1" as="geometry">
                        <mxPoint x="160" y="72" as="sourcePoint"/>
                        <mxPoint x="260" y="-28" as="targetPoint"/>
                    </mxGeometry>
                </mxCell>
                <mxCell id="RmoLTkE8BjR0isru9Wzh-70" value="" style="edgeStyle=entityRelationEdgeStyle;fontSize=12;html=1;endArrow=ERoneToMany;startArrow=ERmandOne;rounded=0;" parent="WIyWlLk6GJQsqaUBKTNV-1" source="RmoLTkE8BjR0isru9Wzh-1" target="RmoLTkE8BjR0isru9Wzh-36" edge="1">
                    <mxGeometry width="100" height="100" relative="1" as="geometry">
                        <mxPoint x="403" y="750" as="sourcePoint"/>
                        <mxPoint x="503" y="650" as="targetPoint"/>
                    </mxGeometry>
                </mxCell>
                <mxCell id="RmoLTkE8BjR0isru9Wzh-72" value="" style="edgeStyle=entityRelationEdgeStyle;fontSize=12;html=1;endArrow=ERoneToMany;startArrow=ERmandOne;rounded=0;" parent="WIyWlLk6GJQsqaUBKTNV-1" source="RmoLTkE8BjR0isru9Wzh-1" target="RmoLTkE8BjR0isru9Wzh-54" edge="1">
                    <mxGeometry width="100" height="100" relative="1" as="geometry">
                        <mxPoint x="310" y="308" as="sourcePoint"/>
                        <mxPoint x="481" y="663" as="targetPoint"/>
                    </mxGeometry>
                </mxCell>
                <mxCell id="RmoLTkE8BjR0isru9Wzh-73" value="" style="edgeStyle=entityRelationEdgeStyle;fontSize=12;html=1;endArrow=ERoneToMany;startArrow=ERmandOne;rounded=0;" parent="WIyWlLk6GJQsqaUBKTNV-1" source="tIHqAbjc1t2AauB0ZmbL-1" target="RmoLTkE8BjR0isru9Wzh-39" edge="1">
                    <mxGeometry width="100" height="100" relative="1" as="geometry">
                        <mxPoint x="719" y="280" as="sourcePoint"/>
                        <mxPoint x="640" y="543" as="targetPoint"/>
                        <Array as="points">
                            <mxPoint x="449" y="160"/>
                        </Array>
                    </mxGeometry>
                </mxCell>
                <mxCell id="RmoLTkE8BjR0isru9Wzh-74" value="" style="edgeStyle=entityRelationEdgeStyle;fontSize=12;html=1;endArrow=ERoneToMany;startArrow=ERmandOne;rounded=0;entryX=1;entryY=0.5;entryDx=0;entryDy=0;" parent="WIyWlLk6GJQsqaUBKTNV-1" source="tIHqAbjc1t2AauB0ZmbL-1" target="RmoLTkE8BjR0isru9Wzh-57" edge="1">
                    <mxGeometry width="100" height="100" relative="1" as="geometry">
                        <mxPoint x="710" y="265" as="sourcePoint"/>
                        <mxPoint x="550" y="518" as="targetPoint"/>
                    </mxGeometry>
                </mxCell>
                <mxCell id="RmoLTkE8BjR0isru9Wzh-75" value="" style="edgeStyle=entityRelationEdgeStyle;fontSize=12;html=1;endArrow=ERoneToMany;startArrow=ERmandOne;rounded=0;" parent="WIyWlLk6GJQsqaUBKTNV-1" source="tIHqAbjc1t2AauB0ZmbL-1" target="RmoLTkE8BjR0isru9Wzh-4" edge="1">
                    <mxGeometry width="100" height="100" relative="1" as="geometry">
                        <mxPoint x="430" y="350" as="sourcePoint"/>
                        <mxPoint x="315" y="1035" as="targetPoint"/>
                        <Array as="points">
                            <mxPoint x="410" y="380"/>
                            <mxPoint x="220" y="330"/>
                        </Array>
                    </mxGeometry>
                </mxCell>
                <mxCell id="tIHqAbjc1t2AauB0ZmbL-0" value="member" style="shape=table;startSize=30;container=1;collapsible=1;childLayout=tableLayout;fixedRows=1;rowLines=0;fontStyle=1;align=center;resizeLast=1;html=1;fillColor=#f8cecc;strokeColor=#b85450;" parent="WIyWlLk6GJQsqaUBKTNV-1" vertex="1">
                    <mxGeometry x="450" y="70" width="180" height="332" as="geometry"/>
                </mxCell>
                <mxCell id="tIHqAbjc1t2AauB0ZmbL-1" value="" style="shape=tableRow;horizontal=0;startSize=0;swimlaneHead=0;swimlaneBody=0;fillColor=none;collapsible=0;dropTarget=0;points=[[0,0.5],[1,0.5]];portConstraint=eastwest;top=0;left=0;right=0;bottom=1;" parent="tIHqAbjc1t2AauB0ZmbL-0" vertex="1">
                    <mxGeometry y="30" width="180" height="30" as="geometry"/>
                </mxCell>
                <mxCell id="tIHqAbjc1t2AauB0ZmbL-2" value="PK" style="shape=partialRectangle;connectable=0;fillColor=none;top=0;left=0;bottom=0;right=0;fontStyle=1;overflow=hidden;whiteSpace=wrap;html=1;" parent="tIHqAbjc1t2AauB0ZmbL-1" vertex="1">
                    <mxGeometry width="30" height="30" as="geometry">
                        <mxRectangle width="30" height="30" as="alternateBounds"/>
                    </mxGeometry>
                </mxCell>
                <mxCell id="tIHqAbjc1t2AauB0ZmbL-3" value="member_id" style="shape=partialRectangle;connectable=0;fillColor=none;top=0;left=0;bottom=0;right=0;align=left;spacingLeft=6;fontStyle=5;overflow=hidden;whiteSpace=wrap;html=1;" parent="tIHqAbjc1t2AauB0ZmbL-1" vertex="1">
                    <mxGeometry x="30" width="150" height="30" as="geometry">
                        <mxRectangle width="150" height="30" as="alternateBounds"/>
                    </mxGeometry>
                </mxCell>
                <mxCell id="KOQhADPZAwRPLwmUrWTx-63" value="" style="shape=tableRow;horizontal=0;startSize=0;swimlaneHead=0;swimlaneBody=0;fillColor=none;collapsible=0;dropTarget=0;points=[[0,0.5],[1,0.5]];portConstraint=eastwest;top=0;left=0;right=0;bottom=0;" parent="tIHqAbjc1t2AauB0ZmbL-0" vertex="1">
                    <mxGeometry y="60" width="180" height="30" as="geometry"/>
                </mxCell>
                <mxCell id="KOQhADPZAwRPLwmUrWTx-64" value="FK" style="shape=partialRectangle;connectable=0;fillColor=none;top=0;left=0;bottom=0;right=0;editable=1;overflow=hidden;whiteSpace=wrap;html=1;" parent="KOQhADPZAwRPLwmUrWTx-63" vertex="1">
                    <mxGeometry width="30" height="30" as="geometry">
                        <mxRectangle width="30" height="30" as="alternateBounds"/>
                    </mxGeometry>
                </mxCell>
                <mxCell id="KOQhADPZAwRPLwmUrWTx-65" value="study_id" style="shape=partialRectangle;connectable=0;fillColor=none;top=0;left=0;bottom=0;right=0;align=left;spacingLeft=6;overflow=hidden;whiteSpace=wrap;html=1;" parent="KOQhADPZAwRPLwmUrWTx-63" vertex="1">
                    <mxGeometry x="30" width="150" height="30" as="geometry">
                        <mxRectangle width="150" height="30" as="alternateBounds"/>
                    </mxGeometry>
                </mxCell>
                <mxCell id="tIHqAbjc1t2AauB0ZmbL-4" value="" style="shape=tableRow;horizontal=0;startSize=0;swimlaneHead=0;swimlaneBody=0;fillColor=none;collapsible=0;dropTarget=0;points=[[0,0.5],[1,0.5]];portConstraint=eastwest;top=0;left=0;right=0;bottom=0;" parent="tIHqAbjc1t2AauB0ZmbL-0" vertex="1">
                    <mxGeometry y="90" width="180" height="30" as="geometry"/>
                </mxCell>
                <mxCell id="tIHqAbjc1t2AauB0ZmbL-5" value="" style="shape=partialRectangle;connectable=0;fillColor=none;top=0;left=0;bottom=0;right=0;editable=1;overflow=hidden;whiteSpace=wrap;html=1;" parent="tIHqAbjc1t2AauB0ZmbL-4" vertex="1">
                    <mxGeometry width="30" height="30" as="geometry">
                        <mxRectangle width="30" height="30" as="alternateBounds"/>
                    </mxGeometry>
                </mxCell>
                <mxCell id="tIHqAbjc1t2AauB0ZmbL-6" value="id" style="shape=partialRectangle;connectable=0;fillColor=none;top=0;left=0;bottom=0;right=0;align=left;spacingLeft=6;overflow=hidden;whiteSpace=wrap;html=1;" parent="tIHqAbjc1t2AauB0ZmbL-4" vertex="1">
                    <mxGeometry x="30" width="150" height="30" as="geometry">
                        <mxRectangle width="150" height="30" as="alternateBounds"/>
                    </mxGeometry>
                </mxCell>
                <mxCell id="tIHqAbjc1t2AauB0ZmbL-7" value="" style="shape=tableRow;horizontal=0;startSize=0;swimlaneHead=0;swimlaneBody=0;fillColor=none;collapsible=0;dropTarget=0;points=[[0,0.5],[1,0.5]];portConstraint=eastwest;top=0;left=0;right=0;bottom=0;" parent="tIHqAbjc1t2AauB0ZmbL-0" vertex="1">
                    <mxGeometry y="120" width="180" height="30" as="geometry"/>
                </mxCell>
                <mxCell id="tIHqAbjc1t2AauB0ZmbL-8" value="" style="shape=partialRectangle;connectable=0;fillColor=none;top=0;left=0;bottom=0;right=0;editable=1;overflow=hidden;whiteSpace=wrap;html=1;" parent="tIHqAbjc1t2AauB0ZmbL-7" vertex="1">
                    <mxGeometry width="30" height="30" as="geometry">
                        <mxRectangle width="30" height="30" as="alternateBounds"/>
                    </mxGeometry>
                </mxCell>
                <mxCell id="tIHqAbjc1t2AauB0ZmbL-9" value="password" style="shape=partialRectangle;connectable=0;fillColor=none;top=0;left=0;bottom=0;right=0;align=left;spacingLeft=6;overflow=hidden;whiteSpace=wrap;html=1;" parent="tIHqAbjc1t2AauB0ZmbL-7" vertex="1">
                    <mxGeometry x="30" width="150" height="30" as="geometry">
                        <mxRectangle width="150" height="30" as="alternateBounds"/>
                    </mxGeometry>
                </mxCell>
                <mxCell id="tIHqAbjc1t2AauB0ZmbL-10" value="" style="shape=tableRow;horizontal=0;startSize=0;swimlaneHead=0;swimlaneBody=0;fillColor=none;collapsible=0;dropTarget=0;points=[[0,0.5],[1,0.5]];portConstraint=eastwest;top=0;left=0;right=0;bottom=0;" parent="tIHqAbjc1t2AauB0ZmbL-0" vertex="1">
                    <mxGeometry y="150" width="180" height="30" as="geometry"/>
                </mxCell>
                <mxCell id="tIHqAbjc1t2AauB0ZmbL-11" value="" style="shape=partialRectangle;connectable=0;fillColor=none;top=0;left=0;bottom=0;right=0;editable=1;overflow=hidden;whiteSpace=wrap;html=1;" parent="tIHqAbjc1t2AauB0ZmbL-10" vertex="1">
                    <mxGeometry width="30" height="30" as="geometry">
                        <mxRectangle width="30" height="30" as="alternateBounds"/>
                    </mxGeometry>
                </mxCell>
                <mxCell id="tIHqAbjc1t2AauB0ZmbL-12" value="name" style="shape=partialRectangle;connectable=0;fillColor=none;top=0;left=0;bottom=0;right=0;align=left;spacingLeft=6;overflow=hidden;whiteSpace=wrap;html=1;" parent="tIHqAbjc1t2AauB0ZmbL-10" vertex="1">
                    <mxGeometry x="30" width="150" height="30" as="geometry">
                        <mxRectangle width="150" height="30" as="alternateBounds"/>
                    </mxGeometry>
                </mxCell>
                <mxCell id="tIHqAbjc1t2AauB0ZmbL-13" value="" style="shape=tableRow;horizontal=0;startSize=0;swimlaneHead=0;swimlaneBody=0;fillColor=none;collapsible=0;dropTarget=0;points=[[0,0.5],[1,0.5]];portConstraint=eastwest;top=0;left=0;right=0;bottom=0;" parent="tIHqAbjc1t2AauB0ZmbL-0" vertex="1">
                    <mxGeometry y="180" width="180" height="30" as="geometry"/>
                </mxCell>
                <mxCell id="tIHqAbjc1t2AauB0ZmbL-14" value="" style="shape=partialRectangle;connectable=0;fillColor=none;top=0;left=0;bottom=0;right=0;editable=1;overflow=hidden;whiteSpace=wrap;html=1;" parent="tIHqAbjc1t2AauB0ZmbL-13" vertex="1">
                    <mxGeometry width="30" height="30" as="geometry">
                        <mxRectangle width="30" height="30" as="alternateBounds"/>
                    </mxGeometry>
                </mxCell>
                <mxCell id="tIHqAbjc1t2AauB0ZmbL-15" value="contact" style="shape=partialRectangle;connectable=0;fillColor=none;top=0;left=0;bottom=0;right=0;align=left;spacingLeft=6;overflow=hidden;whiteSpace=wrap;html=1;" parent="tIHqAbjc1t2AauB0ZmbL-13" vertex="1">
                    <mxGeometry x="30" width="150" height="30" as="geometry">
                        <mxRectangle width="150" height="30" as="alternateBounds"/>
                    </mxGeometry>
                </mxCell>
                <mxCell id="tIHqAbjc1t2AauB0ZmbL-16" value="" style="shape=tableRow;horizontal=0;startSize=0;swimlaneHead=0;swimlaneBody=0;fillColor=none;collapsible=0;dropTarget=0;points=[[0,0.5],[1,0.5]];portConstraint=eastwest;top=0;left=0;right=0;bottom=0;" parent="tIHqAbjc1t2AauB0ZmbL-0" vertex="1">
                    <mxGeometry y="210" width="180" height="30" as="geometry"/>
                </mxCell>
                <mxCell id="tIHqAbjc1t2AauB0ZmbL-17" value="" style="shape=partialRectangle;connectable=0;fillColor=none;top=0;left=0;bottom=0;right=0;editable=1;overflow=hidden;whiteSpace=wrap;html=1;" parent="tIHqAbjc1t2AauB0ZmbL-16" vertex="1">
                    <mxGeometry width="30" height="30" as="geometry">
                        <mxRectangle width="30" height="30" as="alternateBounds"/>
                    </mxGeometry>
                </mxCell>
                <mxCell id="tIHqAbjc1t2AauB0ZmbL-18" value="role" style="shape=partialRectangle;connectable=0;fillColor=none;top=0;left=0;bottom=0;right=0;align=left;spacingLeft=6;overflow=hidden;whiteSpace=wrap;html=1;" parent="tIHqAbjc1t2AauB0ZmbL-16" vertex="1">
                    <mxGeometry x="30" width="150" height="30" as="geometry">
                        <mxRectangle width="150" height="30" as="alternateBounds"/>
                    </mxGeometry>
                </mxCell>
                <mxCell id="tIHqAbjc1t2AauB0ZmbL-19" value="" style="shape=tableRow;horizontal=0;startSize=0;swimlaneHead=0;swimlaneBody=0;fillColor=none;collapsible=0;dropTarget=0;points=[[0,0.5],[1,0.5]];portConstraint=eastwest;top=0;left=0;right=0;bottom=0;" parent="tIHqAbjc1t2AauB0ZmbL-0" vertex="1">
                    <mxGeometry y="240" width="180" height="30" as="geometry"/>
                </mxCell>
                <mxCell id="tIHqAbjc1t2AauB0ZmbL-20" value="" style="shape=partialRectangle;connectable=0;fillColor=none;top=0;left=0;bottom=0;right=0;editable=1;overflow=hidden;whiteSpace=wrap;html=1;" parent="tIHqAbjc1t2AauB0ZmbL-19" vertex="1">
                    <mxGeometry width="30" height="30" as="geometry">
                        <mxRectangle width="30" height="30" as="alternateBounds"/>
                    </mxGeometry>
                </mxCell>
                <mxCell id="tIHqAbjc1t2AauB0ZmbL-21" value="created_at" style="shape=partialRectangle;connectable=0;fillColor=none;top=0;left=0;bottom=0;right=0;align=left;spacingLeft=6;overflow=hidden;whiteSpace=wrap;html=1;" parent="tIHqAbjc1t2AauB0ZmbL-19" vertex="1">
                    <mxGeometry x="30" width="150" height="30" as="geometry">
                        <mxRectangle width="150" height="30" as="alternateBounds"/>
                    </mxGeometry>
                </mxCell>
                <mxCell id="tIHqAbjc1t2AauB0ZmbL-22" value="" style="shape=tableRow;horizontal=0;startSize=0;swimlaneHead=0;swimlaneBody=0;fillColor=none;collapsible=0;dropTarget=0;points=[[0,0.5],[1,0.5]];portConstraint=eastwest;top=0;left=0;right=0;bottom=0;" parent="tIHqAbjc1t2AauB0ZmbL-0" vertex="1">
                    <mxGeometry y="270" width="180" height="30" as="geometry"/>
                </mxCell>
                <mxCell id="tIHqAbjc1t2AauB0ZmbL-23" value="" style="shape=partialRectangle;connectable=0;fillColor=none;top=0;left=0;bottom=0;right=0;editable=1;overflow=hidden;whiteSpace=wrap;html=1;" parent="tIHqAbjc1t2AauB0ZmbL-22" vertex="1">
                    <mxGeometry width="30" height="30" as="geometry">
                        <mxRectangle width="30" height="30" as="alternateBounds"/>
                    </mxGeometry>
                </mxCell>
                <mxCell id="tIHqAbjc1t2AauB0ZmbL-24" value="updated_at" style="shape=partialRectangle;connectable=0;fillColor=none;top=0;left=0;bottom=0;right=0;align=left;spacingLeft=6;overflow=hidden;whiteSpace=wrap;html=1;" parent="tIHqAbjc1t2AauB0ZmbL-22" vertex="1">
                    <mxGeometry x="30" width="150" height="30" as="geometry">
                        <mxRectangle width="150" height="30" as="alternateBounds"/>
                    </mxGeometry>
                </mxCell>
                <mxCell id="tIHqAbjc1t2AauB0ZmbL-25" value="" style="shape=tableRow;horizontal=0;startSize=0;swimlaneHead=0;swimlaneBody=0;fillColor=none;collapsible=0;dropTarget=0;points=[[0,0.5],[1,0.5]];portConstraint=eastwest;top=0;left=0;right=0;bottom=0;" parent="tIHqAbjc1t2AauB0ZmbL-0" vertex="1">
                    <mxGeometry y="300" width="180" height="30" as="geometry"/>
                </mxCell>
                <mxCell id="tIHqAbjc1t2AauB0ZmbL-26" value="" style="shape=partialRectangle;connectable=0;fillColor=none;top=0;left=0;bottom=0;right=0;editable=1;overflow=hidden;whiteSpace=wrap;html=1;" parent="tIHqAbjc1t2AauB0ZmbL-25" vertex="1">
                    <mxGeometry width="30" height="30" as="geometry">
                        <mxRectangle width="30" height="30" as="alternateBounds"/>
                    </mxGeometry>
                </mxCell>
                <mxCell id="tIHqAbjc1t2AauB0ZmbL-27" value="expired_at" style="shape=partialRectangle;connectable=0;fillColor=none;top=0;left=0;bottom=0;right=0;align=left;spacingLeft=6;overflow=hidden;whiteSpace=wrap;html=1;" parent="tIHqAbjc1t2AauB0ZmbL-25" vertex="1">
                    <mxGeometry x="30" width="150" height="30" as="geometry">
                        <mxRectangle width="150" height="30" as="alternateBounds"/>
                    </mxGeometry>
                </mxCell>
                <mxCell id="tIHqAbjc1t2AauB0ZmbL-28" value="schedule" style="shape=table;startSize=30;container=1;collapsible=1;childLayout=tableLayout;fixedRows=1;rowLines=0;fontStyle=1;align=center;resizeLast=1;html=1;fillColor=#e1d5e7;strokeColor=#9673a6;" parent="WIyWlLk6GJQsqaUBKTNV-1" vertex="1">
                    <mxGeometry x="450" y="-115" width="180" height="155" as="geometry"/>
                </mxCell>
                <mxCell id="tIHqAbjc1t2AauB0ZmbL-29" value="" style="shape=tableRow;horizontal=0;startSize=0;swimlaneHead=0;swimlaneBody=0;fillColor=none;collapsible=0;dropTarget=0;points=[[0,0.5],[1,0.5]];portConstraint=eastwest;top=0;left=0;right=0;bottom=1;" parent="tIHqAbjc1t2AauB0ZmbL-28" vertex="1">
                    <mxGeometry y="30" width="180" height="30" as="geometry"/>
                </mxCell>
                <mxCell id="tIHqAbjc1t2AauB0ZmbL-30" value="PK" style="shape=partialRectangle;connectable=0;fillColor=none;top=0;left=0;bottom=0;right=0;fontStyle=1;overflow=hidden;whiteSpace=wrap;html=1;" parent="tIHqAbjc1t2AauB0ZmbL-29" vertex="1">
                    <mxGeometry width="30" height="30" as="geometry">
                        <mxRectangle width="30" height="30" as="alternateBounds"/>
                    </mxGeometry>
                </mxCell>
                <mxCell id="tIHqAbjc1t2AauB0ZmbL-31" value="event_name" style="shape=partialRectangle;connectable=0;fillColor=none;top=0;left=0;bottom=0;right=0;align=left;spacingLeft=6;fontStyle=5;overflow=hidden;whiteSpace=wrap;html=1;" parent="tIHqAbjc1t2AauB0ZmbL-29" vertex="1">
                    <mxGeometry x="30" width="150" height="30" as="geometry">
                        <mxRectangle width="150" height="30" as="alternateBounds"/>
                    </mxGeometry>
                </mxCell>
                <mxCell id="KOQhADPZAwRPLwmUrWTx-71" value="" style="shape=tableRow;horizontal=0;startSize=0;swimlaneHead=0;swimlaneBody=0;fillColor=none;collapsible=0;dropTarget=0;points=[[0,0.5],[1,0.5]];portConstraint=eastwest;top=0;left=0;right=0;bottom=0;" parent="tIHqAbjc1t2AauB0ZmbL-28" vertex="1">
                    <mxGeometry y="60" width="180" height="30" as="geometry"/>
                </mxCell>
                <mxCell id="KOQhADPZAwRPLwmUrWTx-72" value="&lt;b&gt;PK, FK&lt;/b&gt;" style="shape=partialRectangle;connectable=0;fillColor=none;top=0;left=0;bottom=0;right=0;editable=1;overflow=hidden;whiteSpace=wrap;html=1;" parent="KOQhADPZAwRPLwmUrWTx-71" vertex="1">
                    <mxGeometry width="30" height="30" as="geometry">
                        <mxRectangle width="30" height="30" as="alternateBounds"/>
                    </mxGeometry>
                </mxCell>
                <mxCell id="KOQhADPZAwRPLwmUrWTx-73" value="study_id" style="shape=partialRectangle;connectable=0;fillColor=none;top=0;left=0;bottom=0;right=0;align=left;spacingLeft=6;overflow=hidden;whiteSpace=wrap;html=1;" parent="KOQhADPZAwRPLwmUrWTx-71" vertex="1">
                    <mxGeometry x="30" width="150" height="30" as="geometry">
                        <mxRectangle width="150" height="30" as="alternateBounds"/>
                    </mxGeometry>
                </mxCell>
                <mxCell id="tIHqAbjc1t2AauB0ZmbL-32" value="" style="shape=tableRow;horizontal=0;startSize=0;swimlaneHead=0;swimlaneBody=0;fillColor=none;collapsible=0;dropTarget=0;points=[[0,0.5],[1,0.5]];portConstraint=eastwest;top=0;left=0;right=0;bottom=0;" parent="tIHqAbjc1t2AauB0ZmbL-28" vertex="1">
                    <mxGeometry y="90" width="180" height="30" as="geometry"/>
                </mxCell>
                <mxCell id="tIHqAbjc1t2AauB0ZmbL-33" value="" style="shape=partialRectangle;connectable=0;fillColor=none;top=0;left=0;bottom=0;right=0;editable=1;overflow=hidden;whiteSpace=wrap;html=1;" parent="tIHqAbjc1t2AauB0ZmbL-32" vertex="1">
                    <mxGeometry width="30" height="30" as="geometry">
                        <mxRectangle width="30" height="30" as="alternateBounds"/>
                    </mxGeometry>
                </mxCell>
                <mxCell id="tIHqAbjc1t2AauB0ZmbL-34" value="start_time" style="shape=partialRectangle;connectable=0;fillColor=none;top=0;left=0;bottom=0;right=0;align=left;spacingLeft=6;overflow=hidden;whiteSpace=wrap;html=1;" parent="tIHqAbjc1t2AauB0ZmbL-32" vertex="1">
                    <mxGeometry x="30" width="150" height="30" as="geometry">
                        <mxRectangle width="150" height="30" as="alternateBounds"/>
                    </mxGeometry>
                </mxCell>
                <mxCell id="tIHqAbjc1t2AauB0ZmbL-35" value="" style="shape=tableRow;horizontal=0;startSize=0;swimlaneHead=0;swimlaneBody=0;fillColor=none;collapsible=0;dropTarget=0;points=[[0,0.5],[1,0.5]];portConstraint=eastwest;top=0;left=0;right=0;bottom=0;" parent="tIHqAbjc1t2AauB0ZmbL-28" vertex="1">
                    <mxGeometry y="120" width="180" height="35" as="geometry"/>
                </mxCell>
                <mxCell id="tIHqAbjc1t2AauB0ZmbL-36" value="" style="shape=partialRectangle;connectable=0;fillColor=none;top=0;left=0;bottom=0;right=0;editable=1;overflow=hidden;whiteSpace=wrap;html=1;" parent="tIHqAbjc1t2AauB0ZmbL-35" vertex="1">
                    <mxGeometry width="30" height="35" as="geometry">
                        <mxRectangle width="30" height="35" as="alternateBounds"/>
                    </mxGeometry>
                </mxCell>
                <mxCell id="tIHqAbjc1t2AauB0ZmbL-37" value="end_time" style="shape=partialRectangle;connectable=0;fillColor=none;top=0;left=0;bottom=0;right=0;align=left;spacingLeft=6;overflow=hidden;whiteSpace=wrap;html=1;" parent="tIHqAbjc1t2AauB0ZmbL-35" vertex="1">
                    <mxGeometry x="30" width="150" height="35" as="geometry">
                        <mxRectangle width="150" height="35" as="alternateBounds"/>
                    </mxGeometry>
                </mxCell>
                <mxCell id="tIHqAbjc1t2AauB0ZmbL-38" value="absent_schedule" style="shape=table;startSize=30;container=1;collapsible=1;childLayout=tableLayout;fixedRows=1;rowLines=0;fontStyle=1;align=center;resizeLast=1;html=1;fillColor=#e1d5e7;strokeColor=#9673a6;" parent="WIyWlLk6GJQsqaUBKTNV-1" vertex="1">
                    <mxGeometry x="850" y="132" width="180" height="270" as="geometry"/>
                </mxCell>
                <mxCell id="tIHqAbjc1t2AauB0ZmbL-39" value="" style="shape=tableRow;horizontal=0;startSize=0;swimlaneHead=0;swimlaneBody=0;fillColor=none;collapsible=0;dropTarget=0;points=[[0,0.5],[1,0.5]];portConstraint=eastwest;top=0;left=0;right=0;bottom=1;" parent="tIHqAbjc1t2AauB0ZmbL-38" vertex="1">
                    <mxGeometry y="30" width="180" height="30" as="geometry"/>
                </mxCell>
                <mxCell id="tIHqAbjc1t2AauB0ZmbL-40" value="PK" style="shape=partialRectangle;connectable=0;fillColor=none;top=0;left=0;bottom=0;right=0;fontStyle=1;overflow=hidden;whiteSpace=wrap;html=1;" parent="tIHqAbjc1t2AauB0ZmbL-39" vertex="1">
                    <mxGeometry width="30" height="30" as="geometry">
                        <mxRectangle width="30" height="30" as="alternateBounds"/>
                    </mxGeometry>
                </mxCell>
                <mxCell id="tIHqAbjc1t2AauB0ZmbL-41" value="absent_id" style="shape=partialRectangle;connectable=0;fillColor=none;top=0;left=0;bottom=0;right=0;align=left;spacingLeft=6;fontStyle=5;overflow=hidden;whiteSpace=wrap;html=1;" parent="tIHqAbjc1t2AauB0ZmbL-39" vertex="1">
                    <mxGeometry x="30" width="150" height="30" as="geometry">
                        <mxRectangle width="150" height="30" as="alternateBounds"/>
                    </mxGeometry>
                </mxCell>
                <mxCell id="tIHqAbjc1t2AauB0ZmbL-42" value="" style="shape=tableRow;horizontal=0;startSize=0;swimlaneHead=0;swimlaneBody=0;fillColor=none;collapsible=0;dropTarget=0;points=[[0,0.5],[1,0.5]];portConstraint=eastwest;top=0;left=0;right=0;bottom=0;" parent="tIHqAbjc1t2AauB0ZmbL-38" vertex="1">
                    <mxGeometry y="60" width="180" height="30" as="geometry"/>
                </mxCell>
                <mxCell id="tIHqAbjc1t2AauB0ZmbL-43" value="FK" style="shape=partialRectangle;connectable=0;fillColor=none;top=0;left=0;bottom=0;right=0;editable=1;overflow=hidden;whiteSpace=wrap;html=1;" parent="tIHqAbjc1t2AauB0ZmbL-42" vertex="1">
                    <mxGeometry width="30" height="30" as="geometry">
                        <mxRectangle width="30" height="30" as="alternateBounds"/>
                    </mxGeometry>
                </mxCell>
                <mxCell id="tIHqAbjc1t2AauB0ZmbL-44" value="member_id" style="shape=partialRectangle;connectable=0;fillColor=none;top=0;left=0;bottom=0;right=0;align=left;spacingLeft=6;overflow=hidden;whiteSpace=wrap;html=1;" parent="tIHqAbjc1t2AauB0ZmbL-42" vertex="1">
                    <mxGeometry x="30" width="150" height="30" as="geometry">
                        <mxRectangle width="150" height="30" as="alternateBounds"/>
                    </mxGeometry>
                </mxCell>
                <mxCell id="tIHqAbjc1t2AauB0ZmbL-45" value="" style="shape=tableRow;horizontal=0;startSize=0;swimlaneHead=0;swimlaneBody=0;fillColor=none;collapsible=0;dropTarget=0;points=[[0,0.5],[1,0.5]];portConstraint=eastwest;top=0;left=0;right=0;bottom=0;" parent="tIHqAbjc1t2AauB0ZmbL-38" vertex="1">
                    <mxGeometry y="90" width="180" height="30" as="geometry"/>
                </mxCell>
                <mxCell id="tIHqAbjc1t2AauB0ZmbL-46" value="FK" style="shape=partialRectangle;connectable=0;fillColor=none;top=0;left=0;bottom=0;right=0;editable=1;overflow=hidden;whiteSpace=wrap;html=1;" parent="tIHqAbjc1t2AauB0ZmbL-45" vertex="1">
                    <mxGeometry width="30" height="30" as="geometry">
                        <mxRectangle width="30" height="30" as="alternateBounds"/>
                    </mxGeometry>
                </mxCell>
                <mxCell id="tIHqAbjc1t2AauB0ZmbL-47" value="event_name" style="shape=partialRectangle;connectable=0;fillColor=none;top=0;left=0;bottom=0;right=0;align=left;spacingLeft=6;overflow=hidden;whiteSpace=wrap;html=1;" parent="tIHqAbjc1t2AauB0ZmbL-45" vertex="1">
                    <mxGeometry x="30" width="150" height="30" as="geometry">
                        <mxRectangle width="150" height="30" as="alternateBounds"/>
                    </mxGeometry>
                </mxCell>
                <mxCell id="KOQhADPZAwRPLwmUrWTx-98" value="" style="shape=tableRow;horizontal=0;startSize=0;swimlaneHead=0;swimlaneBody=0;fillColor=none;collapsible=0;dropTarget=0;points=[[0,0.5],[1,0.5]];portConstraint=eastwest;top=0;left=0;right=0;bottom=0;" parent="tIHqAbjc1t2AauB0ZmbL-38" vertex="1">
                    <mxGeometry y="120" width="180" height="30" as="geometry"/>
                </mxCell>
                <mxCell id="KOQhADPZAwRPLwmUrWTx-99" value="FK" style="shape=partialRectangle;connectable=0;fillColor=none;top=0;left=0;bottom=0;right=0;editable=1;overflow=hidden;whiteSpace=wrap;html=1;" parent="KOQhADPZAwRPLwmUrWTx-98" vertex="1">
                    <mxGeometry width="30" height="30" as="geometry">
                        <mxRectangle width="30" height="30" as="alternateBounds"/>
                    </mxGeometry>
                </mxCell>
                <mxCell id="KOQhADPZAwRPLwmUrWTx-100" value="study_id" style="shape=partialRectangle;connectable=0;fillColor=none;top=0;left=0;bottom=0;right=0;align=left;spacingLeft=6;overflow=hidden;whiteSpace=wrap;html=1;" parent="KOQhADPZAwRPLwmUrWTx-98" vertex="1">
                    <mxGeometry x="30" width="150" height="30" as="geometry">
                        <mxRectangle width="150" height="30" as="alternateBounds"/>
                    </mxGeometry>
                </mxCell>
                <mxCell id="tIHqAbjc1t2AauB0ZmbL-48" value="" style="shape=tableRow;horizontal=0;startSize=0;swimlaneHead=0;swimlaneBody=0;fillColor=none;collapsible=0;dropTarget=0;points=[[0,0.5],[1,0.5]];portConstraint=eastwest;top=0;left=0;right=0;bottom=0;" parent="tIHqAbjc1t2AauB0ZmbL-38" vertex="1">
                    <mxGeometry y="150" width="180" height="30" as="geometry"/>
                </mxCell>
                <mxCell id="tIHqAbjc1t2AauB0ZmbL-49" value="" style="shape=partialRectangle;connectable=0;fillColor=none;top=0;left=0;bottom=0;right=0;editable=1;overflow=hidden;whiteSpace=wrap;html=1;" parent="tIHqAbjc1t2AauB0ZmbL-48" vertex="1">
                    <mxGeometry width="30" height="30" as="geometry">
                        <mxRectangle width="30" height="30" as="alternateBounds"/>
                    </mxGeometry>
                </mxCell>
                <mxCell id="tIHqAbjc1t2AauB0ZmbL-50" value="description" style="shape=partialRectangle;connectable=0;fillColor=none;top=0;left=0;bottom=0;right=0;align=left;spacingLeft=6;overflow=hidden;whiteSpace=wrap;html=1;" parent="tIHqAbjc1t2AauB0ZmbL-48" vertex="1">
                    <mxGeometry x="30" width="150" height="30" as="geometry">
                        <mxRectangle width="150" height="30" as="alternateBounds"/>
                    </mxGeometry>
                </mxCell>
                <mxCell id="tIHqAbjc1t2AauB0ZmbL-51" value="" style="shape=tableRow;horizontal=0;startSize=0;swimlaneHead=0;swimlaneBody=0;fillColor=none;collapsible=0;dropTarget=0;points=[[0,0.5],[1,0.5]];portConstraint=eastwest;top=0;left=0;right=0;bottom=0;" parent="tIHqAbjc1t2AauB0ZmbL-38" vertex="1">
                    <mxGeometry y="180" width="180" height="30" as="geometry"/>
                </mxCell>
                <mxCell id="tIHqAbjc1t2AauB0ZmbL-52" value="" style="shape=partialRectangle;connectable=0;fillColor=none;top=0;left=0;bottom=0;right=0;editable=1;overflow=hidden;whiteSpace=wrap;html=1;" parent="tIHqAbjc1t2AauB0ZmbL-51" vertex="1">
                    <mxGeometry width="30" height="30" as="geometry">
                        <mxRectangle width="30" height="30" as="alternateBounds"/>
                    </mxGeometry>
                </mxCell>
                <mxCell id="tIHqAbjc1t2AauB0ZmbL-53" value="absent_date" style="shape=partialRectangle;connectable=0;fillColor=none;top=0;left=0;bottom=0;right=0;align=left;spacingLeft=6;overflow=hidden;whiteSpace=wrap;html=1;" parent="tIHqAbjc1t2AauB0ZmbL-51" vertex="1">
                    <mxGeometry x="30" width="150" height="30" as="geometry">
                        <mxRectangle width="150" height="30" as="alternateBounds"/>
                    </mxGeometry>
                </mxCell>
                <mxCell id="tIHqAbjc1t2AauB0ZmbL-54" value="" style="shape=tableRow;horizontal=0;startSize=0;swimlaneHead=0;swimlaneBody=0;fillColor=none;collapsible=0;dropTarget=0;points=[[0,0.5],[1,0.5]];portConstraint=eastwest;top=0;left=0;right=0;bottom=0;" parent="tIHqAbjc1t2AauB0ZmbL-38" vertex="1">
                    <mxGeometry y="210" width="180" height="30" as="geometry"/>
                </mxCell>
                <mxCell id="tIHqAbjc1t2AauB0ZmbL-55" value="" style="shape=partialRectangle;connectable=0;fillColor=none;top=0;left=0;bottom=0;right=0;editable=1;overflow=hidden;whiteSpace=wrap;html=1;" parent="tIHqAbjc1t2AauB0ZmbL-54" vertex="1">
                    <mxGeometry width="30" height="30" as="geometry">
                        <mxRectangle width="30" height="30" as="alternateBounds"/>
                    </mxGeometry>
                </mxCell>
                <mxCell id="tIHqAbjc1t2AauB0ZmbL-56" value="created_at" style="shape=partialRectangle;connectable=0;fillColor=none;top=0;left=0;bottom=0;right=0;align=left;spacingLeft=6;overflow=hidden;whiteSpace=wrap;html=1;" parent="tIHqAbjc1t2AauB0ZmbL-54" vertex="1">
                    <mxGeometry x="30" width="150" height="30" as="geometry">
                        <mxRectangle width="150" height="30" as="alternateBounds"/>
                    </mxGeometry>
                </mxCell>
                <mxCell id="tIHqAbjc1t2AauB0ZmbL-57" value="" style="shape=tableRow;horizontal=0;startSize=0;swimlaneHead=0;swimlaneBody=0;fillColor=none;collapsible=0;dropTarget=0;points=[[0,0.5],[1,0.5]];portConstraint=eastwest;top=0;left=0;right=0;bottom=0;" parent="tIHqAbjc1t2AauB0ZmbL-38" vertex="1">
                    <mxGeometry y="240" width="180" height="30" as="geometry"/>
                </mxCell>
                <mxCell id="tIHqAbjc1t2AauB0ZmbL-58" value="" style="shape=partialRectangle;connectable=0;fillColor=none;top=0;left=0;bottom=0;right=0;editable=1;overflow=hidden;whiteSpace=wrap;html=1;" parent="tIHqAbjc1t2AauB0ZmbL-57" vertex="1">
                    <mxGeometry width="30" height="30" as="geometry">
                        <mxRectangle width="30" height="30" as="alternateBounds"/>
                    </mxGeometry>
                </mxCell>
                <mxCell id="tIHqAbjc1t2AauB0ZmbL-59" value="updated_at" style="shape=partialRectangle;connectable=0;fillColor=none;top=0;left=0;bottom=0;right=0;align=left;spacingLeft=6;overflow=hidden;whiteSpace=wrap;html=1;" parent="tIHqAbjc1t2AauB0ZmbL-57" vertex="1">
                    <mxGeometry x="30" width="150" height="30" as="geometry">
                        <mxRectangle width="150" height="30" as="alternateBounds"/>
                    </mxGeometry>
                </mxCell>
                <mxCell id="tIHqAbjc1t2AauB0ZmbL-73" value="" style="edgeStyle=entityRelationEdgeStyle;fontSize=12;html=1;endArrow=ERoneToMany;startArrow=ERmandOne;rounded=0;" parent="WIyWlLk6GJQsqaUBKTNV-1" source="tIHqAbjc1t2AauB0ZmbL-1" target="tIHqAbjc1t2AauB0ZmbL-42" edge="1">
                    <mxGeometry width="100" height="100" relative="1" as="geometry">
                        <mxPoint x="1730" y="603" as="sourcePoint"/>
                        <mxPoint x="1590" y="378" as="targetPoint"/>
                    </mxGeometry>
                </mxCell>
                <mxCell id="tIHqAbjc1t2AauB0ZmbL-74" value="" style="edgeStyle=entityRelationEdgeStyle;fontSize=12;html=1;endArrow=ERoneToMany;startArrow=ERmandOne;rounded=0;" parent="WIyWlLk6GJQsqaUBKTNV-1" source="tIHqAbjc1t2AauB0ZmbL-29" target="tIHqAbjc1t2AauB0ZmbL-82" edge="1">
                    <mxGeometry width="100" height="100" relative="1" as="geometry">
                        <mxPoint x="1360" y="128" as="sourcePoint"/>
                        <mxPoint x="1150" y="368" as="targetPoint"/>
                    </mxGeometry>
                </mxCell>
                <mxCell id="tIHqAbjc1t2AauB0ZmbL-75" value="member_schedule" style="shape=table;startSize=30;container=1;collapsible=1;childLayout=tableLayout;fixedRows=1;rowLines=0;fontStyle=1;align=center;resizeLast=1;html=1;fillColor=#e1d5e7;strokeColor=#9673a6;" parent="WIyWlLk6GJQsqaUBKTNV-1" vertex="1">
                    <mxGeometry x="850" y="-115" width="180" height="210" as="geometry"/>
                </mxCell>
                <mxCell id="tIHqAbjc1t2AauB0ZmbL-76" value="" style="shape=tableRow;horizontal=0;startSize=0;swimlaneHead=0;swimlaneBody=0;fillColor=none;collapsible=0;dropTarget=0;points=[[0,0.5],[1,0.5]];portConstraint=eastwest;top=0;left=0;right=0;bottom=1;" parent="tIHqAbjc1t2AauB0ZmbL-75" vertex="1">
                    <mxGeometry y="30" width="180" height="30" as="geometry"/>
                </mxCell>
                <mxCell id="tIHqAbjc1t2AauB0ZmbL-77" value="PK" style="shape=partialRectangle;connectable=0;fillColor=none;top=0;left=0;bottom=0;right=0;fontStyle=1;overflow=hidden;whiteSpace=wrap;html=1;" parent="tIHqAbjc1t2AauB0ZmbL-76" vertex="1">
                    <mxGeometry width="30" height="30" as="geometry">
                        <mxRectangle width="30" height="30" as="alternateBounds"/>
                    </mxGeometry>
                </mxCell>
                <mxCell id="tIHqAbjc1t2AauB0ZmbL-78" value="member_schedule_id" style="shape=partialRectangle;connectable=0;fillColor=none;top=0;left=0;bottom=0;right=0;align=left;spacingLeft=6;fontStyle=5;overflow=hidden;whiteSpace=wrap;html=1;" parent="tIHqAbjc1t2AauB0ZmbL-76" vertex="1">
                    <mxGeometry x="30" width="150" height="30" as="geometry">
                        <mxRectangle width="150" height="30" as="alternateBounds"/>
                    </mxGeometry>
                </mxCell>
                <mxCell id="tIHqAbjc1t2AauB0ZmbL-79" value="" style="shape=tableRow;horizontal=0;startSize=0;swimlaneHead=0;swimlaneBody=0;fillColor=none;collapsible=0;dropTarget=0;points=[[0,0.5],[1,0.5]];portConstraint=eastwest;top=0;left=0;right=0;bottom=0;" parent="tIHqAbjc1t2AauB0ZmbL-75" vertex="1">
                    <mxGeometry y="60" width="180" height="30" as="geometry"/>
                </mxCell>
                <mxCell id="tIHqAbjc1t2AauB0ZmbL-80" value="FK" style="shape=partialRectangle;connectable=0;fillColor=none;top=0;left=0;bottom=0;right=0;editable=1;overflow=hidden;whiteSpace=wrap;html=1;" parent="tIHqAbjc1t2AauB0ZmbL-79" vertex="1">
                    <mxGeometry width="30" height="30" as="geometry">
                        <mxRectangle width="30" height="30" as="alternateBounds"/>
                    </mxGeometry>
                </mxCell>
                <mxCell id="tIHqAbjc1t2AauB0ZmbL-81" value="member_id" style="shape=partialRectangle;connectable=0;fillColor=none;top=0;left=0;bottom=0;right=0;align=left;spacingLeft=6;overflow=hidden;whiteSpace=wrap;html=1;" parent="tIHqAbjc1t2AauB0ZmbL-79" vertex="1">
                    <mxGeometry x="30" width="150" height="30" as="geometry">
                        <mxRectangle width="150" height="30" as="alternateBounds"/>
                    </mxGeometry>
                </mxCell>
                <mxCell id="tIHqAbjc1t2AauB0ZmbL-82" value="" style="shape=tableRow;horizontal=0;startSize=0;swimlaneHead=0;swimlaneBody=0;fillColor=none;collapsible=0;dropTarget=0;points=[[0,0.5],[1,0.5]];portConstraint=eastwest;top=0;left=0;right=0;bottom=0;" parent="tIHqAbjc1t2AauB0ZmbL-75" vertex="1">
                    <mxGeometry y="90" width="180" height="30" as="geometry"/>
                </mxCell>
                <mxCell id="tIHqAbjc1t2AauB0ZmbL-83" value="FK" style="shape=partialRectangle;connectable=0;fillColor=none;top=0;left=0;bottom=0;right=0;editable=1;overflow=hidden;whiteSpace=wrap;html=1;" parent="tIHqAbjc1t2AauB0ZmbL-82" vertex="1">
                    <mxGeometry width="30" height="30" as="geometry">
                        <mxRectangle width="30" height="30" as="alternateBounds"/>
                    </mxGeometry>
                </mxCell>
                <mxCell id="tIHqAbjc1t2AauB0ZmbL-84" value="event_name" style="shape=partialRectangle;connectable=0;fillColor=none;top=0;left=0;bottom=0;right=0;align=left;spacingLeft=6;overflow=hidden;whiteSpace=wrap;html=1;" parent="tIHqAbjc1t2AauB0ZmbL-82" vertex="1">
                    <mxGeometry x="30" width="150" height="30" as="geometry">
                        <mxRectangle width="150" height="30" as="alternateBounds"/>
                    </mxGeometry>
                </mxCell>
                <mxCell id="KOQhADPZAwRPLwmUrWTx-93" value="" style="shape=tableRow;horizontal=0;startSize=0;swimlaneHead=0;swimlaneBody=0;fillColor=none;collapsible=0;dropTarget=0;points=[[0,0.5],[1,0.5]];portConstraint=eastwest;top=0;left=0;right=0;bottom=0;" parent="tIHqAbjc1t2AauB0ZmbL-75" vertex="1">
                    <mxGeometry y="120" width="180" height="30" as="geometry"/>
                </mxCell>
                <mxCell id="KOQhADPZAwRPLwmUrWTx-94" value="FK" style="shape=partialRectangle;connectable=0;fillColor=none;top=0;left=0;bottom=0;right=0;editable=1;overflow=hidden;whiteSpace=wrap;html=1;" parent="KOQhADPZAwRPLwmUrWTx-93" vertex="1">
                    <mxGeometry width="30" height="30" as="geometry">
                        <mxRectangle width="30" height="30" as="alternateBounds"/>
                    </mxGeometry>
                </mxCell>
                <mxCell id="KOQhADPZAwRPLwmUrWTx-95" value="study_id" style="shape=partialRectangle;connectable=0;fillColor=none;top=0;left=0;bottom=0;right=0;align=left;spacingLeft=6;overflow=hidden;whiteSpace=wrap;html=1;" parent="KOQhADPZAwRPLwmUrWTx-93" vertex="1">
                    <mxGeometry x="30" width="150" height="30" as="geometry">
                        <mxRectangle width="150" height="30" as="alternateBounds"/>
                    </mxGeometry>
                </mxCell>
                <mxCell id="tIHqAbjc1t2AauB0ZmbL-85" value="" style="shape=tableRow;horizontal=0;startSize=0;swimlaneHead=0;swimlaneBody=0;fillColor=none;collapsible=0;dropTarget=0;points=[[0,0.5],[1,0.5]];portConstraint=eastwest;top=0;left=0;right=0;bottom=0;" parent="tIHqAbjc1t2AauB0ZmbL-75" vertex="1">
                    <mxGeometry y="150" width="180" height="30" as="geometry"/>
                </mxCell>
                <mxCell id="tIHqAbjc1t2AauB0ZmbL-86" value="" style="shape=partialRectangle;connectable=0;fillColor=none;top=0;left=0;bottom=0;right=0;editable=1;overflow=hidden;whiteSpace=wrap;html=1;" parent="tIHqAbjc1t2AauB0ZmbL-85" vertex="1">
                    <mxGeometry width="30" height="30" as="geometry">
                        <mxRectangle width="30" height="30" as="alternateBounds"/>
                    </mxGeometry>
                </mxCell>
                <mxCell id="tIHqAbjc1t2AauB0ZmbL-87" value="created_at" style="shape=partialRectangle;connectable=0;fillColor=none;top=0;left=0;bottom=0;right=0;align=left;spacingLeft=6;overflow=hidden;whiteSpace=wrap;html=1;" parent="tIHqAbjc1t2AauB0ZmbL-85" vertex="1">
                    <mxGeometry x="30" width="150" height="30" as="geometry">
                        <mxRectangle width="150" height="30" as="alternateBounds"/>
                    </mxGeometry>
                </mxCell>
                <mxCell id="tIHqAbjc1t2AauB0ZmbL-88" value="" style="shape=tableRow;horizontal=0;startSize=0;swimlaneHead=0;swimlaneBody=0;fillColor=none;collapsible=0;dropTarget=0;points=[[0,0.5],[1,0.5]];portConstraint=eastwest;top=0;left=0;right=0;bottom=0;" parent="tIHqAbjc1t2AauB0ZmbL-75" vertex="1">
                    <mxGeometry y="180" width="180" height="30" as="geometry"/>
                </mxCell>
                <mxCell id="tIHqAbjc1t2AauB0ZmbL-89" value="" style="shape=partialRectangle;connectable=0;fillColor=none;top=0;left=0;bottom=0;right=0;editable=1;overflow=hidden;whiteSpace=wrap;html=1;" parent="tIHqAbjc1t2AauB0ZmbL-88" vertex="1">
                    <mxGeometry width="30" height="30" as="geometry">
                        <mxRectangle width="30" height="30" as="alternateBounds"/>
                    </mxGeometry>
                </mxCell>
                <mxCell id="tIHqAbjc1t2AauB0ZmbL-90" value="updated_at" style="shape=partialRectangle;connectable=0;fillColor=none;top=0;left=0;bottom=0;right=0;align=left;spacingLeft=6;overflow=hidden;whiteSpace=wrap;html=1;" parent="tIHqAbjc1t2AauB0ZmbL-88" vertex="1">
                    <mxGeometry x="30" width="150" height="30" as="geometry">
                        <mxRectangle width="150" height="30" as="alternateBounds"/>
                    </mxGeometry>
                </mxCell>
                <mxCell id="tIHqAbjc1t2AauB0ZmbL-91" value="" style="edgeStyle=entityRelationEdgeStyle;fontSize=12;html=1;endArrow=ERoneToMany;startArrow=ERmandOne;rounded=0;" parent="WIyWlLk6GJQsqaUBKTNV-1" source="tIHqAbjc1t2AauB0ZmbL-1" target="tIHqAbjc1t2AauB0ZmbL-79" edge="1">
                    <mxGeometry width="100" height="100" relative="1" as="geometry">
                        <mxPoint x="1225.3000000000002" y="658" as="sourcePoint"/>
                        <mxPoint x="1100" y="909.01" as="targetPoint"/>
                        <Array as="points">
                            <mxPoint x="1250" y="418"/>
                            <mxPoint x="1250" y="674.01"/>
                            <mxPoint x="1590" y="309.01"/>
                            <mxPoint x="1160" y="694.01"/>
                            <mxPoint x="1140" y="768"/>
                            <mxPoint x="1060" y="668"/>
                            <mxPoint x="1140" y="708"/>
                            <mxPoint x="950" y="661"/>
                            <mxPoint x="1140" y="678"/>
                        </Array>
                    </mxGeometry>
                </mxCell>
                <mxCell id="tIHqAbjc1t2AauB0ZmbL-92" value="" style="edgeStyle=entityRelationEdgeStyle;fontSize=12;html=1;endArrow=ERoneToMany;startArrow=ERmandOne;rounded=0;" parent="WIyWlLk6GJQsqaUBKTNV-1" source="tIHqAbjc1t2AauB0ZmbL-29" target="tIHqAbjc1t2AauB0ZmbL-45" edge="1">
                    <mxGeometry width="100" height="100" relative="1" as="geometry">
                        <mxPoint x="1040" y="203" as="sourcePoint"/>
                        <mxPoint x="1040" y="648" as="targetPoint"/>
                    </mxGeometry>
                </mxCell>
                <mxCell id="oQ24fNq7NaugECMe2r0J-0" value="notice" style="shape=table;startSize=30;container=1;collapsible=1;childLayout=tableLayout;fixedRows=1;rowLines=0;fontStyle=1;align=center;resizeLast=1;html=1;fillColor=#d5e8d4;strokeColor=#82b366;" parent="WIyWlLk6GJQsqaUBKTNV-1" vertex="1">
                    <mxGeometry x="730" y="550" width="180" height="120" as="geometry"/>
                </mxCell>
                <mxCell id="oQ24fNq7NaugECMe2r0J-1" value="" style="shape=tableRow;horizontal=0;startSize=0;swimlaneHead=0;swimlaneBody=0;fillColor=none;collapsible=0;dropTarget=0;points=[[0,0.5],[1,0.5]];portConstraint=eastwest;top=0;left=0;right=0;bottom=1;" parent="oQ24fNq7NaugECMe2r0J-0" vertex="1">
                    <mxGeometry y="30" width="180" height="30" as="geometry"/>
                </mxCell>
                <mxCell id="oQ24fNq7NaugECMe2r0J-2" value="PK" style="shape=partialRectangle;connectable=0;fillColor=none;top=0;left=0;bottom=0;right=0;fontStyle=1;overflow=hidden;whiteSpace=wrap;html=1;" parent="oQ24fNq7NaugECMe2r0J-1" vertex="1">
                    <mxGeometry width="30" height="30" as="geometry">
                        <mxRectangle width="30" height="30" as="alternateBounds"/>
                    </mxGeometry>
                </mxCell>
                <mxCell id="oQ24fNq7NaugECMe2r0J-3" value="notice_id" style="shape=partialRectangle;connectable=0;fillColor=none;top=0;left=0;bottom=0;right=0;align=left;spacingLeft=6;fontStyle=5;overflow=hidden;whiteSpace=wrap;html=1;" parent="oQ24fNq7NaugECMe2r0J-1" vertex="1">
                    <mxGeometry x="30" width="150" height="30" as="geometry">
                        <mxRectangle width="150" height="30" as="alternateBounds"/>
                    </mxGeometry>
                </mxCell>
                <mxCell id="oQ24fNq7NaugECMe2r0J-4" value="" style="shape=tableRow;horizontal=0;startSize=0;swimlaneHead=0;swimlaneBody=0;fillColor=none;collapsible=0;dropTarget=0;points=[[0,0.5],[1,0.5]];portConstraint=eastwest;top=0;left=0;right=0;bottom=0;" parent="oQ24fNq7NaugECMe2r0J-0" vertex="1">
                    <mxGeometry y="60" width="180" height="30" as="geometry"/>
                </mxCell>
                <mxCell id="oQ24fNq7NaugECMe2r0J-5" value="FK" style="shape=partialRectangle;connectable=0;fillColor=none;top=0;left=0;bottom=0;right=0;editable=1;overflow=hidden;whiteSpace=wrap;html=1;" parent="oQ24fNq7NaugECMe2r0J-4" vertex="1">
                    <mxGeometry width="30" height="30" as="geometry">
                        <mxRectangle width="30" height="30" as="alternateBounds"/>
                    </mxGeometry>
                </mxCell>
                <mxCell id="oQ24fNq7NaugECMe2r0J-6" value="member_id" style="shape=partialRectangle;connectable=0;fillColor=none;top=0;left=0;bottom=0;right=0;align=left;spacingLeft=6;overflow=hidden;whiteSpace=wrap;html=1;" parent="oQ24fNq7NaugECMe2r0J-4" vertex="1">
                    <mxGeometry x="30" width="150" height="30" as="geometry">
                        <mxRectangle width="150" height="30" as="alternateBounds"/>
                    </mxGeometry>
                </mxCell>
                <mxCell id="oQ24fNq7NaugECMe2r0J-7" value="" style="shape=tableRow;horizontal=0;startSize=0;swimlaneHead=0;swimlaneBody=0;fillColor=none;collapsible=0;dropTarget=0;points=[[0,0.5],[1,0.5]];portConstraint=eastwest;top=0;left=0;right=0;bottom=0;" parent="oQ24fNq7NaugECMe2r0J-0" vertex="1">
                    <mxGeometry y="90" width="180" height="30" as="geometry"/>
                </mxCell>
                <mxCell id="oQ24fNq7NaugECMe2r0J-8" value="" style="shape=partialRectangle;connectable=0;fillColor=none;top=0;left=0;bottom=0;right=0;editable=1;overflow=hidden;whiteSpace=wrap;html=1;" parent="oQ24fNq7NaugECMe2r0J-7" vertex="1">
                    <mxGeometry width="30" height="30" as="geometry">
                        <mxRectangle width="30" height="30" as="alternateBounds"/>
                    </mxGeometry>
                </mxCell>
                <mxCell id="oQ24fNq7NaugECMe2r0J-9" value="last_notice_date" style="shape=partialRectangle;connectable=0;fillColor=none;top=0;left=0;bottom=0;right=0;align=left;spacingLeft=6;overflow=hidden;whiteSpace=wrap;html=1;" parent="oQ24fNq7NaugECMe2r0J-7" vertex="1">
                    <mxGeometry x="30" width="150" height="30" as="geometry">
                        <mxRectangle width="150" height="30" as="alternateBounds"/>
                    </mxGeometry>
                </mxCell>
                <mxCell id="oQ24fNq7NaugECMe2r0J-10" value="daily_log" style="shape=table;startSize=30;container=1;collapsible=1;childLayout=tableLayout;fixedRows=1;rowLines=0;fontStyle=1;align=center;resizeLast=1;html=1;fillColor=#d5e8d4;strokeColor=#82b366;" parent="WIyWlLk6GJQsqaUBKTNV-1" vertex="1">
                    <mxGeometry x="920" y="465" width="180" height="210" as="geometry"/>
                </mxCell>
                <mxCell id="oQ24fNq7NaugECMe2r0J-11" value="" style="shape=tableRow;horizontal=0;startSize=0;swimlaneHead=0;swimlaneBody=0;fillColor=none;collapsible=0;dropTarget=0;points=[[0,0.5],[1,0.5]];portConstraint=eastwest;top=0;left=0;right=0;bottom=1;" parent="oQ24fNq7NaugECMe2r0J-10" vertex="1">
                    <mxGeometry y="30" width="180" height="30" as="geometry"/>
                </mxCell>
                <mxCell id="oQ24fNq7NaugECMe2r0J-12" value="PK" style="shape=partialRectangle;connectable=0;fillColor=none;top=0;left=0;bottom=0;right=0;fontStyle=1;overflow=hidden;whiteSpace=wrap;html=1;" parent="oQ24fNq7NaugECMe2r0J-11" vertex="1">
                    <mxGeometry width="30" height="30" as="geometry">
                        <mxRectangle width="30" height="30" as="alternateBounds"/>
                    </mxGeometry>
                </mxCell>
                <mxCell id="oQ24fNq7NaugECMe2r0J-13" value="stat_id" style="shape=partialRectangle;connectable=0;fillColor=none;top=0;left=0;bottom=0;right=0;align=left;spacingLeft=6;fontStyle=5;overflow=hidden;whiteSpace=wrap;html=1;" parent="oQ24fNq7NaugECMe2r0J-11" vertex="1">
                    <mxGeometry x="30" width="150" height="30" as="geometry">
                        <mxRectangle width="150" height="30" as="alternateBounds"/>
                    </mxGeometry>
                </mxCell>
                <mxCell id="oQ24fNq7NaugECMe2r0J-14" value="" style="shape=tableRow;horizontal=0;startSize=0;swimlaneHead=0;swimlaneBody=0;fillColor=none;collapsible=0;dropTarget=0;points=[[0,0.5],[1,0.5]];portConstraint=eastwest;top=0;left=0;right=0;bottom=0;" parent="oQ24fNq7NaugECMe2r0J-10" vertex="1">
                    <mxGeometry y="60" width="180" height="30" as="geometry"/>
                </mxCell>
                <mxCell id="oQ24fNq7NaugECMe2r0J-15" value="FK" style="shape=partialRectangle;connectable=0;fillColor=none;top=0;left=0;bottom=0;right=0;editable=1;overflow=hidden;whiteSpace=wrap;html=1;" parent="oQ24fNq7NaugECMe2r0J-14" vertex="1">
                    <mxGeometry width="30" height="30" as="geometry">
                        <mxRectangle width="30" height="30" as="alternateBounds"/>
                    </mxGeometry>
                </mxCell>
                <mxCell id="oQ24fNq7NaugECMe2r0J-16" value="member_id" style="shape=partialRectangle;connectable=0;fillColor=none;top=0;left=0;bottom=0;right=0;align=left;spacingLeft=6;overflow=hidden;whiteSpace=wrap;html=1;" parent="oQ24fNq7NaugECMe2r0J-14" vertex="1">
                    <mxGeometry x="30" width="150" height="30" as="geometry">
                        <mxRectangle width="150" height="30" as="alternateBounds"/>
                    </mxGeometry>
                </mxCell>
                <mxCell id="oQ24fNq7NaugECMe2r0J-17" value="" style="shape=tableRow;horizontal=0;startSize=0;swimlaneHead=0;swimlaneBody=0;fillColor=none;collapsible=0;dropTarget=0;points=[[0,0.5],[1,0.5]];portConstraint=eastwest;top=0;left=0;right=0;bottom=0;" parent="oQ24fNq7NaugECMe2r0J-10" vertex="1">
                    <mxGeometry y="90" width="180" height="30" as="geometry"/>
                </mxCell>
                <mxCell id="oQ24fNq7NaugECMe2r0J-18" value="" style="shape=partialRectangle;connectable=0;fillColor=none;top=0;left=0;bottom=0;right=0;editable=1;overflow=hidden;whiteSpace=wrap;html=1;" parent="oQ24fNq7NaugECMe2r0J-17" vertex="1">
                    <mxGeometry width="30" height="30" as="geometry">
                        <mxRectangle width="30" height="30" as="alternateBounds"/>
                    </mxGeometry>
                </mxCell>
                <mxCell id="oQ24fNq7NaugECMe2r0J-19" value="date" style="shape=partialRectangle;connectable=0;fillColor=none;top=0;left=0;bottom=0;right=0;align=left;spacingLeft=6;overflow=hidden;whiteSpace=wrap;html=1;" parent="oQ24fNq7NaugECMe2r0J-17" vertex="1">
                    <mxGeometry x="30" width="150" height="30" as="geometry">
                        <mxRectangle width="150" height="30" as="alternateBounds"/>
                    </mxGeometry>
                </mxCell>
                <mxCell id="oQ24fNq7NaugECMe2r0J-20" value="" style="shape=tableRow;horizontal=0;startSize=0;swimlaneHead=0;swimlaneBody=0;fillColor=none;collapsible=0;dropTarget=0;points=[[0,0.5],[1,0.5]];portConstraint=eastwest;top=0;left=0;right=0;bottom=0;" parent="oQ24fNq7NaugECMe2r0J-10" vertex="1">
                    <mxGeometry y="120" width="180" height="30" as="geometry"/>
                </mxCell>
                <mxCell id="oQ24fNq7NaugECMe2r0J-21" value="" style="shape=partialRectangle;connectable=0;fillColor=none;top=0;left=0;bottom=0;right=0;editable=1;overflow=hidden;whiteSpace=wrap;html=1;" parent="oQ24fNq7NaugECMe2r0J-20" vertex="1">
                    <mxGeometry width="30" height="30" as="geometry">
                        <mxRectangle width="30" height="30" as="alternateBounds"/>
                    </mxGeometry>
                </mxCell>
                <mxCell id="oQ24fNq7NaugECMe2r0J-22" value="type" style="shape=partialRectangle;connectable=0;fillColor=none;top=0;left=0;bottom=0;right=0;align=left;spacingLeft=6;overflow=hidden;whiteSpace=wrap;html=1;" parent="oQ24fNq7NaugECMe2r0J-20" vertex="1">
                    <mxGeometry x="30" width="150" height="30" as="geometry">
                        <mxRectangle width="150" height="30" as="alternateBounds"/>
                    </mxGeometry>
                </mxCell>
                <mxCell id="oQ24fNq7NaugECMe2r0J-23" value="" style="shape=tableRow;horizontal=0;startSize=0;swimlaneHead=0;swimlaneBody=0;fillColor=none;collapsible=0;dropTarget=0;points=[[0,0.5],[1,0.5]];portConstraint=eastwest;top=0;left=0;right=0;bottom=0;" parent="oQ24fNq7NaugECMe2r0J-10" vertex="1">
                    <mxGeometry y="150" width="180" height="30" as="geometry"/>
                </mxCell>
                <mxCell id="oQ24fNq7NaugECMe2r0J-24" value="" style="shape=partialRectangle;connectable=0;fillColor=none;top=0;left=0;bottom=0;right=0;editable=1;overflow=hidden;whiteSpace=wrap;html=1;" parent="oQ24fNq7NaugECMe2r0J-23" vertex="1">
                    <mxGeometry width="30" height="30" as="geometry">
                        <mxRectangle width="30" height="30" as="alternateBounds"/>
                    </mxGeometry>
                </mxCell>
                <mxCell id="oQ24fNq7NaugECMe2r0J-25" value="score" style="shape=partialRectangle;connectable=0;fillColor=none;top=0;left=0;bottom=0;right=0;align=left;spacingLeft=6;overflow=hidden;whiteSpace=wrap;html=1;" parent="oQ24fNq7NaugECMe2r0J-23" vertex="1">
                    <mxGeometry x="30" width="150" height="30" as="geometry">
                        <mxRectangle width="150" height="30" as="alternateBounds"/>
                    </mxGeometry>
                </mxCell>
                <mxCell id="oQ24fNq7NaugECMe2r0J-26" value="" style="shape=tableRow;horizontal=0;startSize=0;swimlaneHead=0;swimlaneBody=0;fillColor=none;collapsible=0;dropTarget=0;points=[[0,0.5],[1,0.5]];portConstraint=eastwest;top=0;left=0;right=0;bottom=0;" parent="oQ24fNq7NaugECMe2r0J-10" vertex="1">
                    <mxGeometry y="180" width="180" height="30" as="geometry"/>
                </mxCell>
                <mxCell id="oQ24fNq7NaugECMe2r0J-27" value="" style="shape=partialRectangle;connectable=0;fillColor=none;top=0;left=0;bottom=0;right=0;editable=1;overflow=hidden;whiteSpace=wrap;html=1;" parent="oQ24fNq7NaugECMe2r0J-26" vertex="1">
                    <mxGeometry width="30" height="30" as="geometry">
                        <mxRectangle width="30" height="30" as="alternateBounds"/>
                    </mxGeometry>
                </mxCell>
                <mxCell id="oQ24fNq7NaugECMe2r0J-28" value="created_at" style="shape=partialRectangle;connectable=0;fillColor=none;top=0;left=0;bottom=0;right=0;align=left;spacingLeft=6;overflow=hidden;whiteSpace=wrap;html=1;" parent="oQ24fNq7NaugECMe2r0J-26" vertex="1">
                    <mxGeometry x="30" width="150" height="30" as="geometry">
                        <mxRectangle width="150" height="30" as="alternateBounds"/>
                    </mxGeometry>
                </mxCell>
                <mxCell id="oQ24fNq7NaugECMe2r0J-29" value="wakeup" style="shape=table;startSize=30;container=1;collapsible=1;childLayout=tableLayout;fixedRows=1;rowLines=0;fontStyle=1;align=center;resizeLast=1;html=1;fillColor=#f8cecc;strokeColor=#b85450;" parent="WIyWlLk6GJQsqaUBKTNV-1" vertex="1">
                    <mxGeometry x="130" y="110" width="180" height="120" as="geometry"/>
                </mxCell>
                <mxCell id="oQ24fNq7NaugECMe2r0J-30" value="" style="shape=tableRow;horizontal=0;startSize=0;swimlaneHead=0;swimlaneBody=0;fillColor=none;collapsible=0;dropTarget=0;points=[[0,0.5],[1,0.5]];portConstraint=eastwest;top=0;left=0;right=0;bottom=1;" parent="oQ24fNq7NaugECMe2r0J-29" vertex="1">
                    <mxGeometry y="30" width="180" height="30" as="geometry"/>
                </mxCell>
                <mxCell id="oQ24fNq7NaugECMe2r0J-31" value="PK" style="shape=partialRectangle;connectable=0;fillColor=none;top=0;left=0;bottom=0;right=0;fontStyle=1;overflow=hidden;whiteSpace=wrap;html=1;" parent="oQ24fNq7NaugECMe2r0J-30" vertex="1">
                    <mxGeometry width="30" height="30" as="geometry">
                        <mxRectangle width="30" height="30" as="alternateBounds"/>
                    </mxGeometry>
                </mxCell>
                <mxCell id="oQ24fNq7NaugECMe2r0J-32" value="wakeup_id" style="shape=partialRectangle;connectable=0;fillColor=none;top=0;left=0;bottom=0;right=0;align=left;spacingLeft=6;fontStyle=5;overflow=hidden;whiteSpace=wrap;html=1;" parent="oQ24fNq7NaugECMe2r0J-30" vertex="1">
                    <mxGeometry x="30" width="150" height="30" as="geometry">
                        <mxRectangle width="150" height="30" as="alternateBounds"/>
                    </mxGeometry>
                </mxCell>
                <mxCell id="oQ24fNq7NaugECMe2r0J-33" value="" style="shape=tableRow;horizontal=0;startSize=0;swimlaneHead=0;swimlaneBody=0;fillColor=none;collapsible=0;dropTarget=0;points=[[0,0.5],[1,0.5]];portConstraint=eastwest;top=0;left=0;right=0;bottom=0;" parent="oQ24fNq7NaugECMe2r0J-29" vertex="1">
                    <mxGeometry y="60" width="180" height="30" as="geometry"/>
                </mxCell>
                <mxCell id="oQ24fNq7NaugECMe2r0J-34" value="FK" style="shape=partialRectangle;connectable=0;fillColor=none;top=0;left=0;bottom=0;right=0;editable=1;overflow=hidden;whiteSpace=wrap;html=1;" parent="oQ24fNq7NaugECMe2r0J-33" vertex="1">
                    <mxGeometry width="30" height="30" as="geometry">
                        <mxRectangle width="30" height="30" as="alternateBounds"/>
                    </mxGeometry>
                </mxCell>
                <mxCell id="oQ24fNq7NaugECMe2r0J-35" value="member_id" style="shape=partialRectangle;connectable=0;fillColor=none;top=0;left=0;bottom=0;right=0;align=left;spacingLeft=6;overflow=hidden;whiteSpace=wrap;html=1;" parent="oQ24fNq7NaugECMe2r0J-33" vertex="1">
                    <mxGeometry x="30" width="150" height="30" as="geometry">
                        <mxRectangle width="150" height="30" as="alternateBounds"/>
                    </mxGeometry>
                </mxCell>
                <mxCell id="oQ24fNq7NaugECMe2r0J-36" value="" style="shape=tableRow;horizontal=0;startSize=0;swimlaneHead=0;swimlaneBody=0;fillColor=none;collapsible=0;dropTarget=0;points=[[0,0.5],[1,0.5]];portConstraint=eastwest;top=0;left=0;right=0;bottom=0;" parent="oQ24fNq7NaugECMe2r0J-29" vertex="1">
                    <mxGeometry y="90" width="180" height="30" as="geometry"/>
                </mxCell>
                <mxCell id="oQ24fNq7NaugECMe2r0J-37" value="" style="shape=partialRectangle;connectable=0;fillColor=none;top=0;left=0;bottom=0;right=0;editable=1;overflow=hidden;whiteSpace=wrap;html=1;" parent="oQ24fNq7NaugECMe2r0J-36" vertex="1">
                    <mxGeometry width="30" height="30" as="geometry">
                        <mxRectangle width="30" height="30" as="alternateBounds"/>
                    </mxGeometry>
                </mxCell>
                <mxCell id="oQ24fNq7NaugECMe2r0J-38" value="wakeup_time" style="shape=partialRectangle;connectable=0;fillColor=none;top=0;left=0;bottom=0;right=0;align=left;spacingLeft=6;overflow=hidden;whiteSpace=wrap;html=1;" parent="oQ24fNq7NaugECMe2r0J-36" vertex="1">
                    <mxGeometry x="30" width="150" height="30" as="geometry">
                        <mxRectangle width="150" height="30" as="alternateBounds"/>
                    </mxGeometry>
                </mxCell>
                <mxCell id="oQ24fNq7NaugECMe2r0J-55" value="" style="edgeStyle=entityRelationEdgeStyle;fontSize=12;html=1;endArrow=ERoneToMany;startArrow=ERmandOne;rounded=0;" parent="WIyWlLk6GJQsqaUBKTNV-1" source="tIHqAbjc1t2AauB0ZmbL-1" target="oQ24fNq7NaugECMe2r0J-14" edge="1">
                    <mxGeometry width="100" height="100" relative="1" as="geometry">
                        <mxPoint x="690" y="320" as="sourcePoint"/>
                        <mxPoint x="460" y="690" as="targetPoint"/>
                        <Array as="points">
                            <mxPoint x="620" y="280"/>
                        </Array>
                    </mxGeometry>
                </mxCell>
                <mxCell id="oQ24fNq7NaugECMe2r0J-57" value="" style="edgeStyle=entityRelationEdgeStyle;fontSize=12;html=1;endArrow=ERoneToMany;startArrow=ERmandOne;rounded=0;" parent="WIyWlLk6GJQsqaUBKTNV-1" source="tIHqAbjc1t2AauB0ZmbL-1" target="oQ24fNq7NaugECMe2r0J-33" edge="1">
                    <mxGeometry width="100" height="100" relative="1" as="geometry">
                        <mxPoint x="670" y="295" as="sourcePoint"/>
                        <mxPoint x="570" y="735" as="targetPoint"/>
                        <Array as="points">
                            <mxPoint x="610" y="280"/>
                            <mxPoint x="630" y="290"/>
                        </Array>
                    </mxGeometry>
                </mxCell>
                <mxCell id="oQ24fNq7NaugECMe2r0J-58" value="" style="edgeStyle=entityRelationEdgeStyle;fontSize=12;html=1;endArrow=ERoneToMany;startArrow=ERmandOne;rounded=0;" parent="WIyWlLk6GJQsqaUBKTNV-1" source="tIHqAbjc1t2AauB0ZmbL-1" target="oQ24fNq7NaugECMe2r0J-4" edge="1">
                    <mxGeometry width="100" height="100" relative="1" as="geometry">
                        <mxPoint x="670" y="295" as="sourcePoint"/>
                        <mxPoint x="837" y="635" as="targetPoint"/>
                        <Array as="points">
                            <mxPoint x="620" y="290"/>
                            <mxPoint x="640" y="300"/>
                        </Array>
                    </mxGeometry>
                </mxCell>
                <mxCell id="KOQhADPZAwRPLwmUrWTx-50" value="study_info" style="shape=table;startSize=30;container=1;collapsible=1;childLayout=tableLayout;fixedRows=1;rowLines=0;fontStyle=1;align=center;resizeLast=1;html=1;fillColor=#e1d5e7;strokeColor=#9673a6;" parent="WIyWlLk6GJQsqaUBKTNV-1" vertex="1">
                    <mxGeometry x="210" y="-115" width="180" height="120" as="geometry"/>
                </mxCell>
                <mxCell id="KOQhADPZAwRPLwmUrWTx-51" value="" style="shape=tableRow;horizontal=0;startSize=0;swimlaneHead=0;swimlaneBody=0;fillColor=none;collapsible=0;dropTarget=0;points=[[0,0.5],[1,0.5]];portConstraint=eastwest;top=0;left=0;right=0;bottom=1;" parent="KOQhADPZAwRPLwmUrWTx-50" vertex="1">
                    <mxGeometry y="30" width="180" height="30" as="geometry"/>
                </mxCell>
                <mxCell id="KOQhADPZAwRPLwmUrWTx-52" value="PK" style="shape=partialRectangle;connectable=0;fillColor=none;top=0;left=0;bottom=0;right=0;fontStyle=1;overflow=hidden;whiteSpace=wrap;html=1;" parent="KOQhADPZAwRPLwmUrWTx-51" vertex="1">
                    <mxGeometry width="38" height="30" as="geometry">
                        <mxRectangle width="38" height="30" as="alternateBounds"/>
                    </mxGeometry>
                </mxCell>
                <mxCell id="KOQhADPZAwRPLwmUrWTx-53" value="study_id" style="shape=partialRectangle;connectable=0;fillColor=none;top=0;left=0;bottom=0;right=0;align=left;spacingLeft=6;fontStyle=5;overflow=hidden;whiteSpace=wrap;html=1;" parent="KOQhADPZAwRPLwmUrWTx-51" vertex="1">
                    <mxGeometry x="38" width="142" height="30" as="geometry">
                        <mxRectangle width="142" height="30" as="alternateBounds"/>
                    </mxGeometry>
                </mxCell>
                <mxCell id="KOQhADPZAwRPLwmUrWTx-54" value="" style="shape=tableRow;horizontal=0;startSize=0;swimlaneHead=0;swimlaneBody=0;fillColor=none;collapsible=0;dropTarget=0;points=[[0,0.5],[1,0.5]];portConstraint=eastwest;top=0;left=0;right=0;bottom=0;" parent="KOQhADPZAwRPLwmUrWTx-50" vertex="1">
                    <mxGeometry y="60" width="180" height="30" as="geometry"/>
                </mxCell>
                <mxCell id="KOQhADPZAwRPLwmUrWTx-55" value="" style="shape=partialRectangle;connectable=0;fillColor=none;top=0;left=0;bottom=0;right=0;editable=1;overflow=hidden;whiteSpace=wrap;html=1;" parent="KOQhADPZAwRPLwmUrWTx-54" vertex="1">
                    <mxGeometry width="38" height="30" as="geometry">
                        <mxRectangle width="38" height="30" as="alternateBounds"/>
                    </mxGeometry>
                </mxCell>
                <mxCell id="KOQhADPZAwRPLwmUrWTx-56" value="study_name" style="shape=partialRectangle;connectable=0;fillColor=none;top=0;left=0;bottom=0;right=0;align=left;spacingLeft=6;overflow=hidden;whiteSpace=wrap;html=1;" parent="KOQhADPZAwRPLwmUrWTx-54" vertex="1">
                    <mxGeometry x="38" width="142" height="30" as="geometry">
                        <mxRectangle width="142" height="30" as="alternateBounds"/>
                    </mxGeometry>
                </mxCell>
                <mxCell id="KOQhADPZAwRPLwmUrWTx-57" value="" style="shape=tableRow;horizontal=0;startSize=0;swimlaneHead=0;swimlaneBody=0;fillColor=none;collapsible=0;dropTarget=0;points=[[0,0.5],[1,0.5]];portConstraint=eastwest;top=0;left=0;right=0;bottom=0;" parent="KOQhADPZAwRPLwmUrWTx-50" vertex="1">
                    <mxGeometry y="90" width="180" height="30" as="geometry"/>
                </mxCell>
                <mxCell id="KOQhADPZAwRPLwmUrWTx-58" value="" style="shape=partialRectangle;connectable=0;fillColor=none;top=0;left=0;bottom=0;right=0;editable=1;overflow=hidden;whiteSpace=wrap;html=1;" parent="KOQhADPZAwRPLwmUrWTx-57" vertex="1">
                    <mxGeometry width="38" height="30" as="geometry">
                        <mxRectangle width="38" height="30" as="alternateBounds"/>
                    </mxGeometry>
                </mxCell>
                <mxCell id="KOQhADPZAwRPLwmUrWTx-59" value="study_logo" style="shape=partialRectangle;connectable=0;fillColor=none;top=0;left=0;bottom=0;right=0;align=left;spacingLeft=6;overflow=hidden;whiteSpace=wrap;html=1;" parent="KOQhADPZAwRPLwmUrWTx-57" vertex="1">
                    <mxGeometry x="38" width="142" height="30" as="geometry">
                        <mxRectangle width="142" height="30" as="alternateBounds"/>
                    </mxGeometry>
                </mxCell>
                <mxCell id="KOQhADPZAwRPLwmUrWTx-68" value="" style="edgeStyle=entityRelationEdgeStyle;fontSize=12;html=1;endArrow=ERoneToMany;startArrow=ERmandOne;rounded=0;" parent="WIyWlLk6GJQsqaUBKTNV-1" source="KOQhADPZAwRPLwmUrWTx-51" target="KOQhADPZAwRPLwmUrWTx-63" edge="1">
                    <mxGeometry width="100" height="100" relative="1" as="geometry">
                        <mxPoint x="780" y="135" as="sourcePoint"/>
                        <mxPoint x="710" y="245" as="targetPoint"/>
                    </mxGeometry>
                </mxCell>
                <mxCell id="KOQhADPZAwRPLwmUrWTx-74" value="" style="edgeStyle=entityRelationEdgeStyle;fontSize=12;html=1;endArrow=ERoneToMany;startArrow=ERmandOne;rounded=0;" parent="WIyWlLk6GJQsqaUBKTNV-1" source="KOQhADPZAwRPLwmUrWTx-51" target="KOQhADPZAwRPLwmUrWTx-71" edge="1">
                    <mxGeometry width="100" height="100" relative="1" as="geometry">
                        <mxPoint x="310" y="-95" as="sourcePoint"/>
                        <mxPoint x="460" y="195" as="targetPoint"/>
                    </mxGeometry>
                </mxCell>
                <mxCell id="KOQhADPZAwRPLwmUrWTx-97" value="" style="edgeStyle=entityRelationEdgeStyle;fontSize=12;html=1;endArrow=ERoneToMany;startArrow=ERmandOne;rounded=0;" parent="WIyWlLk6GJQsqaUBKTNV-1" source="KOQhADPZAwRPLwmUrWTx-71" target="KOQhADPZAwRPLwmUrWTx-93" edge="1">
                    <mxGeometry width="100" height="100" relative="1" as="geometry">
                        <mxPoint x="660" y="-60" as="sourcePoint"/>
                        <mxPoint x="837" y="5" as="targetPoint"/>
                    </mxGeometry>
                </mxCell>
                <mxCell id="KOQhADPZAwRPLwmUrWTx-104" value="" style="edgeStyle=entityRelationEdgeStyle;fontSize=12;html=1;endArrow=ERoneToMany;startArrow=ERmandOne;rounded=0;" parent="WIyWlLk6GJQsqaUBKTNV-1" source="KOQhADPZAwRPLwmUrWTx-71" target="KOQhADPZAwRPLwmUrWTx-98" edge="1">
                    <mxGeometry width="100" height="100" relative="1" as="geometry">
                        <mxPoint x="660" y="30" as="sourcePoint"/>
                        <mxPoint x="837" y="35" as="targetPoint"/>
                        <Array as="points">
                            <mxPoint x="640" y="20"/>
                            <mxPoint x="580" y="20"/>
                            <mxPoint x="570" y="20"/>
                        </Array>
                    </mxGeometry>
                </mxCell>
            </root>
        </mxGraphModel>
    </diagram>
</mxfile>